<?xml version="1.0" encoding="UTF-8"?>
<!DOCTYPE svg PUBLIC "-//W3C//DTD SVG 1.1//EN" "http://www.w3.org/Graphics/SVG/1.1/DTD/svg11.dtd">
<!-- Creator: CorelDRAW -->
<svg xmlns="http://www.w3.org/2000/svg" xml:space="preserve" width="110mm" height="140mm" version="1.1" style="shape-rendering:geometricPrecision; text-rendering:geometricPrecision; image-rendering:optimizeQuality; fill-rule:evenodd; clip-rule:evenodd"
viewBox="0 0 11000 14000"
 xmlns:xlink="http://www.w3.org/1999/xlink"
 xmlns:xodm="http://www.corel.com/coreldraw/odm/2003">
 <defs>
  <style type="text/css">
   <![CDATA[
    .fil1 {fill:#020202}
    .fil4 {fill:#13B34B}
    .fil0 {fill:#15D38D}
    .fil10 {fill:#58ED3D}
    .fil9 {fill:#59EF9F}
    .fil5 {fill:#7CB5B8}
    .fil7 {fill:#96CBDD}
    .fil2 {fill:#A5F1F6}
    .fil6 {fill:#BFBFBF}
    .fil8 {fill:#D7D9E5}
    .fil3 {fill:white}
   ]]>
  </style>
 </defs>
 <g id="Camada_x0020_1">
  <metadata id="CorelCorpID_0Corel-Layer"/>
  <g id="_1978647270176">
   <path class="fil0" d="M4098.37 11152.22c143.43,-52.75 290.26,-96.69 356.55,83.75 160.92,257.13 -303.47,511.89 -413.48,195.58 -71.84,-206.53 56.91,-279.32 56.93,-279.33zm-719.15 -568.25c93.83,288.53 313.81,655.95 -36.3,876.54 -393.46,41.05 -600.08,-363.84 -650.84,-731.2 -199.17,-650.14 495.39,-698.6 687.14,-145.34zm3267.28 -69.46c302.45,224.9 -159.52,617.28 -457.85,258.74 -69.78,-381.18 239.03,-440.66 457.85,-258.74zm-2276.74 -148.3c-230.97,-212.55 153.7,-776.85 671.76,-786.96 154.74,-3.01 305.48,20.06 378.74,149.01 97.43,106.09 271.51,229.47 235.14,492.85 -27.08,196.16 -178.93,350.75 -313.93,440.27 -369.94,245.33 -861.91,110.72 -971.71,-295.17zm3407.49 -840.38c38.11,58.92 582.77,680.83 82.32,1005.84 -305.3,198.27 -670.12,-68.86 -800.57,-560.46 -80.31,-102.87 -84.1,-185.53 -57.8,-335.68 63.73,-363.99 491.3,-508.27 776.05,-109.7zm-3957.57 195.85c-186.48,98.25 -369.91,-43.4 -502.52,-107.9 -16.57,-328.93 133.52,-421.77 396.14,-264.14 127.61,76.59 300.57,215.54 106.38,372.04zm2703.42 -787.25c-255.53,428.72 -639.71,-280.73 -296.02,-395.61 268.92,-89.91 442.19,150.39 296.02,395.61zm-1615.89 -693.88c843.56,-94.81 867.5,703.31 32.62,802.65 -859.76,102.3 -912.77,-703.73 -32.62,-802.65zm-1808.99 483.2c-216.99,199.9 -455.04,718.08 -552.71,1113.5 -84.29,341.26 -141.22,1162.79 21.03,1441.72 206.93,278.97 527.1,534.55 802.61,721.24 211.34,143.2 747.49,455.9 1069.22,480.91 1.51,-345.49 217.19,-427.33 567.62,-385.23 258.89,31.11 520.6,180.49 579.19,403.01 25.58,32.59 58.57,106.41 68.12,128.43 121.52,-3.96 210.65,-14.82 325.9,-32.48 35.44,-5.43 113.73,-15.99 144.74,-24.69l145.36 -82.98c-44.75,-368.11 224.15,-610.65 435.39,-733.64 126.6,-73.7 288.25,-131.57 470.47,-121.47 244.55,13.56 261.61,74.22 334.09,249.98 229.59,-148.1 389.13,-326.62 570.39,-554.68 83.3,-104.79 167.96,-218.42 241.52,-336.73 67.3,-108.25 129.55,-259.54 226.71,-356.84 24.89,-591.18 -155.53,-1275.12 -440.74,-1627.63 -7.72,-4.7 -17.13,-12.37 -21.76,-16.17l-41.13 -33.34c-5.52,-5.01 -12.93,-12.24 -18.38,-17.52l-158.66 -176.59c-947.75,-1066.94 -2368.74,-1416.49 -3708.15,-813.32 -663.07,298.6 -883.76,654.13 -1060.83,774.52z"/>
   <path class="fil1" d="M2566.54 11278.97c-162.25,-278.93 -105.32,-1100.46 -21.03,-1441.72 97.67,-395.42 335.72,-913.6 552.71,-1113.5 420.1,-729.18 1618.16,-1241.82 2623.22,-1177.49 950.23,60.82 2010.52,671.5 2385.69,1459.91 285.21,352.51 465.63,1036.45 440.74,1627.63 -70.53,1556.19 -1197.51,2710.01 -2677.71,2895.65 -1547.97,194.15 -3105.71,-938.04 -3303.62,-2250.48zm852.56 -3157.44c-186.9,260.95 -432.56,342.37 -640.55,425.91 -57.79,-128.8 -65.76,-143.18 -74.98,-292.37 -40.22,-540.79 839.55,-616.82 1314.33,-577.5 -41.5,124.86 -174.07,154.74 -280.01,223.46 -105.59,68.5 -209.35,150.83 -318.79,220.5zm4685.68 95.16c-7.97,135.28 -14.34,232.09 -89.05,328.07 -49.59,-51.55 -147.37,-132.49 -213.17,-196.73l-212.24 -247.7 -683.9 -418.49c245.82,-27.68 534.73,17.8 758.62,90.93 262.67,85.8 392.62,150.76 439.74,443.92zm-3533.59 -941.98c93.3,-32.02 197.09,-32.95 301.46,-30.02 155.73,4.38 169.88,-3.39 194.51,126.82 -103.04,83.29 -362.95,113.62 -513.59,130.26l17.62 -227.06zm-374.32 364.07c-1.82,-245.84 -16.71,-641.48 217.53,-723.73 102.72,-36.06 1733.04,-39.49 1883.03,-16.46 308.79,47.4 284.42,351.87 302.67,653.23 -584.21,-120.07 -739.9,-196.82 -1407.33,-163.61 -16.23,-126.81 -22.65,-133.37 -66.97,-230.84 -711.15,-79.07 -658.49,-29.04 -704.48,408.75l-224.45 72.66zm-960.17 -1660.72c80.15,-76.55 106.41,-108.57 208.14,-169.01 314.69,129.55 233.77,592.32 1936.66,575.99 675.44,-6.47 1489.93,-16.95 1894.62,-618.46 119.68,40.22 180.75,74.8 234.44,196.51 118.69,31.2 30.33,-0.52 126.82,69.93l822.87 611.89c-55.46,16.49 -746,36.94 -568.74,457.8 110.13,261.47 530.5,223.41 813.41,275.01 308.67,56.31 559.08,211.73 920.72,160.55 267.59,-37.86 558.24,-240.33 595.09,-489.82 114.44,238.54 206.65,565.34 108.27,835.21 -153.72,616.02 -891.87,732.36 -1529.26,521.22 -621.43,-205.85 -545.15,-378.86 -638.21,-516.98 -119.84,-177.89 -247.47,-29.41 -428.92,-754.05l-132.9 -208.63 111.75 672.6c-349.11,-25.65 -523.91,-105.03 -949.49,-82.12 -21.1,-323.88 -32.1,-642.72 -303.92,-746.17 -147.55,-56.16 -832.76,-30.93 -1042.58,-30.88 -1073.98,0.33 -1332.69,-168.41 -1376.29,753.13 -160.68,33.51 -349.55,8.06 -512.74,25.09 -162.39,16.93 -316.96,61.94 -455.07,92.21l113.89 -652.01 -125.19 176.78c-24.2,138.82 -81.08,337.06 -133.31,466 -80.67,199.19 -181.85,115.89 -292.86,286.98 -130.08,200.45 36.89,330.57 -613.54,540.47 -681.46,219.93 -1427.46,98.61 -1539.62,-597.02 -50.31,-178.12 -10.52,-590.07 76.11,-747.07 503.39,750.76 828.37,414 1533.66,290.65 305.74,-53.48 724.45,-16.85 815.4,-269.31 154.96,-430.15 -435.73,-426.94 -589.5,-446.81 118.41,-133.37 297.91,-219.24 452.74,-334.94 94.3,-70.46 153.82,-109.24 234.03,-173.99 78.76,-63.58 146.72,-131.42 233.52,-170.75zm6379.37 730.45c-40.79,-121.16 -51.94,-116.97 15.71,-216.33 191.33,-280.94 404.5,-154.8 395.46,-38.03 -45.4,94.49 -71.17,58.71 -149.07,148.22 -52.08,59.85 -39.93,74.01 -116.42,154.11l-145.68 -47.97zm-8858.29 -254.36c33.09,-94.33 26.2,-127.66 137.13,-131.31 103.39,-3.39 400.86,153.56 253.03,414.76l-115.42 12.8 -274.74 -296.25zm8632.92 127.09c-486.39,-63.58 66.5,-736.71 313.8,-432.88 -47.09,116.99 21.94,11.32 -97.49,114.26 -44.5,38.37 -47.26,30.41 -88.99,81.03 -65,78.88 -77.16,151.05 -127.32,237.59zm-7984.44 0c-70.81,-84.55 -67.78,-153.78 -151.95,-246.65 -78.82,-86.98 -142.87,-88.31 -185.4,-192.38 350.64,-273.6 761.37,381.15 337.35,439.03zm7619.52 -262.19c-12.87,-162.44 -35.14,-271.47 -105.49,-415.5 -288.12,-589.98 256.48,-481.44 421.21,35.35 -172.4,121.04 -220.47,157.44 -315.72,380.15zm156.99 397.97l258.09 57.03c89.38,44.65 78.87,116.83 234.03,143 249.26,42.04 232.17,-135.65 399.28,-235.44 49.6,573.46 -277.94,778.63 -832.35,669.97 -224.56,-44.01 -394.8,-125.21 -628.25,-154.69 -263.1,-33.22 -409.51,8.99 -582.36,-166.68l33.61 -93.8c88.67,-95.96 108.99,-84.42 240,-96.35 719.11,-65.51 496.83,-536.31 105.89,-865.6 -68.41,-57.63 -359.18,-223.43 -225.91,-352.48 372.89,-400.53 842.22,956.41 997.97,1095.04zm-6496.7 176.85c311.36,234.29 -301.26,280.13 -420.22,293.15 -281.77,30.82 -417.97,98.59 -652.81,151.72 -511.72,115.76 -1001.89,-49.31 -902.46,-612.77 83.98,-28.31 114.08,59.99 169.66,118.01 202.45,211.3 422.6,-51.46 446.98,-64.29l275.33 -73.82c350.55,-283.01 97.39,-582.3 -150.08,-761.36 45.2,-196.36 237.12,-548.15 463.43,-405.38 102.34,161.48 -8.69,264.71 -69.83,407.19 -63.4,147.73 -87.22,302.5 -77.82,485.48l153.02 -316.43c104.61,-214.83 451.23,-698.48 678.18,-523.18 161.52,124.76 -111.77,289.17 -190.3,369.88 -101.4,104.25 -249.6,214.75 -325.62,354.29 -315.8,579.68 433.77,460.15 602.54,577.51zm323.15 -957.39c-7.55,-217.33 91.16,-338.99 271.94,-376.38l61.62 74.47c-54.55,133.69 -236.59,205.95 -333.56,301.91zm4788.6 -9.24c-138.24,-76.95 -311.41,-191.61 -362.73,-314.24l44.66 -80.22c200.44,50.2 286.26,163.11 318.07,394.46zm-1371.51 -4979.26c1592.21,273.99 2067.14,2242.52 1609.18,3367.82 -219.85,540.15 -732.74,1263.11 -1104.28,1548.02 -263.01,201.69 -561.16,325.34 -982.54,341.64 -224.13,8.68 -1140.82,57.24 -1263.15,-38.08 -661.24,79.72 -1080.04,-454.04 -1363.88,-813.09 -106.57,-134.81 -199.9,-257.69 -303.58,-410.03 -896.04,-1316.47 -497.47,-3323.19 875.24,-3885.16 629.98,-257.9 1832.16,-261.4 2533.01,-111.12zm-4040.54 2979.62c-294.54,-74.32 -265.55,-264.71 -264.78,-599.5 0.7,-298.47 -20.39,-530.94 270.59,-604.6 11.35,22.56 19.63,30.45 29.51,92.67 1.61,10.16 2.98,18.97 3.78,29.39 0.78,10.13 0.32,18.63 0.23,28.8l-59.04 457.9c-7.64,219.24 8.67,383.9 19.71,595.34zm6227.32 -599.21c-14.35,363.6 29.1,457.1 -256.04,591.89 -11.46,-169.58 31.86,-402.01 17.39,-627.01 -13.15,-204.4 -60.51,-392 -80.26,-582.95 343.19,63.28 333.06,260.13 318.91,618.07zm-5231.65 -2208.79c708.53,-752.83 3001.57,-815 3893.91,-42.66 -734.2,-332.88 -1002.01,-403.31 -1927.82,-403.31 -1062.31,0 -1191.12,109.43 -1966.09,445.97zm-900.8 1414.41c-414.1,107.29 -501.67,28.57 -514.93,759.7 -17.69,976.17 308.47,681.87 472.27,841.89 111.5,256.72 159.87,444.44 297.2,683.05 133.2,231.41 261.67,396.09 397.19,582.24 -73.16,109.32 -166.24,139.77 -233.67,269.38 -55.64,106.98 -42.05,316.45 -96.47,415.32 -32.91,59.77 -521.52,396.76 -614.24,431.97 35.8,-253.56 469.66,-496.41 578.13,-675.69 110.69,-182.93 16.23,-377.19 -150.94,-430.09 -184.51,-58.4 -287.75,14.45 -427.99,90.04 -61.28,33.03 -6.03,5.83 -67.42,34.71 -143.52,-171.27 -252.51,-300.86 -520.66,-113.34 -119.48,83.56 -191.52,227.89 -262.7,350.83 -142.17,245.57 -218.72,44.34 -372.32,238.08 -150.32,189.6 20.31,60.2 -220.51,186.27 -114.12,59.73 -131.39,101.87 -155.62,256.45 -28.05,178.97 -27.81,159.05 -93.72,311.18 -399.68,922.69 -203.89,1922.31 946.01,1922.31 514.48,0 723.96,-172.72 1087.23,-303.65 364.91,625.22 -90.27,842.62 -209.76,1793.34 -225.57,1794.93 1208.96,3565.62 3234.11,3536.55 2443.18,-35.06 3812.18,-2571.55 2867.77,-4489.71 -75.67,-153.67 -104.9,-226.65 -154.99,-423.02 -75.54,-296.08 -42.28,-189.18 -3.42,-461.83 305.36,92.65 506.39,335.66 1163.48,335.66 924.61,0 1408.21,-822.02 875.48,-1874.38 -178.37,-352.34 19.42,-458.55 -320.52,-630.37 -9.24,-4.66 -37.12,-16.73 -45.56,-22.23 -189.28,-123.37 61.61,-108.39 -352.25,-256.86 -189.05,-67.82 -44.21,-43.86 -238.7,-307.07 -170.95,-231.34 -471.25,-395.86 -665.92,-54.57 -154.6,-53.6 -239.79,-175.21 -469.06,-126.98 -181.99,38.27 -399.66,278.16 -45.77,580.7 139.05,118.87 395.09,375.43 446.61,550.78 -96.46,-47.78 -576.63,-375.01 -614.97,-448.04 -151.59,-288.73 128.94,-304.03 -388.82,-700.98 201.57,-230.86 610.6,-939.28 677.56,-1265.67 527.29,-163.05 505.51,-294.25 505.51,-825.63 0,-990.21 -450.26,-561.61 -570.09,-865.04 -79.24,-200.63 -105.71,-321.99 -208.09,-506.59 -88.08,-158.84 -210.87,-289.06 -264.1,-450.09 -250.72,-758.29 -1038.62,-971.62 -1770.74,-1081.51 -913.37,-137.09 -2270.01,61.82 -2800.69,662.38 -161.76,183.06 -142.07,221.95 -231.98,482.97 -40.58,117.76 -181.7,294.05 -259.34,451.96 -89.48,181.98 -131.95,369.48 -202.59,545.58z"/>
   <path class="fil2" d="M5963 2670.42c259.97,-126.38 476.53,-21.95 616.59,209.43 78.81,130.16 101.5,181.57 24.34,341.57 -133.1,275.96 -305.86,351.28 -603.2,275.27 -125.51,-32.09 -175.89,-124.46 -229.29,-220.93 -133.24,-240.71 -8.69,-507.99 191.56,-605.34zm-2613.3 1058.85c-293.85,-608.76 6.84,-1090.48 379.76,-1373.05 468.27,-354.83 1085.69,-452.92 1757.02,-423.37l-635.67 354.41c-542.37,323.91 -1149.24,911.75 -1501.11,1442.01zm1217.56 1920.12c6.57,-6.13 18.08,-22.7 21.67,-16.03l771.88 -389.13c1605.73,-877.56 1588.82,-2452.17 1515.65,-3226.95 -370.15,-244.52 -1539.84,-315.68 -2069.36,-249.85 -1788.45,222.32 -2201.28,1180.09 -1487.92,2705.54 260.21,556.43 668.28,962.66 1248.08,1176.42z"/>
   <path class="fil3" d="M3236.7 5978.06c-86.8,39.33 -154.76,107.17 -233.52,170.75 -80.21,64.75 -139.73,103.53 -234.03,173.99 -154.83,115.7 -334.33,201.57 -452.74,334.94 153.77,19.87 744.46,16.66 589.5,446.81 -90.95,252.46 -509.66,215.83 -815.4,269.31 -705.29,123.35 -1030.27,460.11 -1533.66,-290.65 -86.63,157 -126.42,568.95 -76.11,747.07 252.63,123.16 671.31,609.54 1483.08,201.39 229.13,-115.21 421.23,-248.3 598.22,-388.49l498.03 -509.33 125.19 -176.78 -113.89 652.01c138.11,-30.27 292.68,-75.28 455.07,-92.21 163.19,-17.03 352.06,8.42 512.74,-25.09 43.6,-921.54 302.31,-752.8 1376.29,-753.13 209.82,-0.05 895.03,-25.28 1042.58,30.88 271.82,103.45 282.82,422.29 303.92,746.17 425.58,-22.91 600.38,56.47 949.49,82.12l-111.75 -672.6 132.9 208.63c186.75,201.81 266.23,318.55 472.74,504.99 1075.34,970.84 1883.52,294.42 2123.65,244.82 98.38,-269.87 6.17,-596.67 -108.27,-835.21 -36.85,249.49 -327.5,451.96 -595.09,489.82 -361.64,51.18 -612.05,-104.24 -920.72,-160.55 -282.91,-51.6 -703.28,-13.54 -813.41,-275.01 -177.26,-420.86 513.28,-441.31 568.74,-457.8l-822.87 -611.89c-96.49,-70.45 -8.13,-38.73 -126.82,-69.93 -113.07,33.98 -93.32,62.94 -190.12,152.51 -576.33,533.31 -1233.16,529.76 -1938.94,508.29 -452.57,-13.76 -847.37,-2.94 -1270.37,-121.97 -530.82,-149.39 -713.03,-451.93 -874.43,-523.86z"/>
   <path class="fil3" d="M4685.52 6167.38c305.18,-82.15 646.82,123.02 1023.74,-32.67 137.5,-56.8 482.62,-234.92 601.84,-341.7 55.38,-49.6 27.82,-2.83 27.82,-37.46 -385.05,20.53 -303.53,177.12 -1434.58,122.82 -1135.88,-54.53 -2061.4,-1335.66 -2064.66,-2720.29 -4.01,-1702.94 2549.56,-1774.19 3793.88,-1420.53 238.05,67.65 389.21,167.13 580.28,235.02 -76.66,-246.29 -189.15,-398.11 -314.2,-568.88 -173.76,-237.26 -337.79,-289.57 -473.33,-455.71 -700.85,-150.28 -1903.03,-146.78 -2533.01,111.12 -1372.71,561.97 -1771.28,2568.69 -875.24,3885.16 103.68,152.34 197.01,275.22 303.58,410.03 283.84,359.05 702.64,892.81 1363.88,813.09z"/>
   <path class="fil4" d="M7509.25 11882.05c3.83,321.23 -227.76,539.25 -422.04,661.18 -320.62,201.19 -579.43,213.23 -817.91,-56.05l-145.36 82.98c-31.01,8.7 -109.3,19.26 -144.74,24.69 -115.25,17.66 -204.38,28.52 -325.9,32.48 -9.55,-22.02 -42.54,-95.84 -68.12,-128.43 17.05,347.18 -227.58,450.95 -566.21,402.27 -329.45,-47.35 -461.87,-212.39 -580.6,-420.05 -321.73,-25.01 -857.88,-337.71 -1069.22,-480.91 -275.51,-186.69 -595.68,-442.27 -802.61,-721.24 197.91,1312.44 1755.65,2444.63 3303.62,2250.48 1480.2,-185.64 2607.18,-1339.46 2677.71,-2895.65 -97.16,97.3 -159.41,248.59 -226.71,356.84 -73.56,118.31 -158.22,231.94 -241.52,336.73 -181.26,228.06 -340.8,406.58 -570.39,554.68z"/>
   <path class="fil5" d="M4567.26 5649.39c471.39,128.65 1300.05,84.3 1725.56,-86.36 907.32,-363.93 1484.23,-1554.8 1469.15,-2437.87 -4.66,-272.97 -155.57,-559.82 -283.32,-705.18 -96.02,-109.27 -401.88,-347.62 -602.19,-402.7 103.69,1097.66 -54.26,2428.27 -1515.65,3226.95l-771.88 389.13c-3.59,-6.67 -15.1,9.9 -21.67,16.03z"/>
   <path class="fil1" d="M4567.26 5649.39c-579.8,-213.76 -987.87,-619.99 -1248.08,-1176.42 -713.36,-1525.45 -300.53,-2483.22 1487.92,-2705.54 529.52,-65.83 1699.21,5.33 2069.36,249.85 200.31,55.08 506.17,293.43 602.19,402.7 127.75,145.36 278.66,432.21 283.32,705.18 15.08,883.07 -561.83,2073.94 -1469.15,2437.87 -425.51,170.66 -1254.17,215.01 -1725.56,86.36zm1771.66 106.16l486.43 -303.15c404.65,-278.44 784.33,-869.81 927.68,-1350.42 480.88,-1612.44 -157.79,-1705.75 -539.19,-2129.41 -191.07,-67.89 -342.23,-167.37 -580.28,-235.02 -1244.32,-353.66 -3797.89,-282.41 -3793.88,1420.53 3.26,1384.63 928.78,2665.76 2064.66,2720.29 1131.05,54.3 1049.53,-102.29 1434.58,-122.82z"/>
   <path class="fil6" d="M7213.84 1972.57c381.4,423.66 1020.07,516.97 539.19,2129.41 -143.35,480.61 -523.03,1071.98 -927.68,1350.42l-486.43 303.15c0,34.63 27.56,-12.14 -27.82,37.46 -119.22,106.78 -464.34,284.9 -601.84,341.7 -376.92,155.69 -718.56,-49.48 -1023.74,32.67 122.33,95.32 1039.02,46.76 1263.15,38.08 421.38,-16.3 719.53,-139.95 982.54,-341.64 371.54,-284.91 884.43,-1007.87 1104.28,-1548.02 457.96,-1125.3 -16.97,-3093.83 -1609.18,-3367.82 135.54,166.14 299.57,218.45 473.33,455.71 125.05,170.77 237.54,322.59 314.2,568.88z"/>
   <path class="fil3" d="M3349.7 3729.27c351.87,-530.26 958.74,-1118.1 1501.11,-1442.01l635.67 -354.41c-671.33,-29.55 -1288.75,68.54 -1757.02,423.37 -372.92,282.57 -673.61,764.29 -379.76,1373.05z"/>
   <path class="fil6" d="M3236.7 5978.06c161.4,71.93 343.61,374.47 874.43,523.86 423,119.03 817.8,108.21 1270.37,121.97 705.78,21.47 1362.61,25.02 1938.94,-508.29 96.8,-89.57 77.05,-118.53 190.12,-152.51 -53.69,-121.71 -114.76,-156.29 -234.44,-196.51 -404.69,601.51 -1219.18,611.99 -1894.62,618.46 -1702.89,16.33 -1621.97,-446.44 -1936.66,-575.99 -101.73,60.44 -127.99,92.46 -208.14,169.01z"/>
   <path class="fil3" d="M1602.55 6705.87c-28.96,102.75 -96.94,215.33 -73.06,330.1 120.24,191.21 397.01,127.81 621.74,96.64 224.13,-31.08 527.51,-12.04 534.84,-238.74 -168.77,-117.36 -918.34,2.17 -602.54,-577.51 76.02,-139.54 224.22,-250.04 325.62,-354.29 78.53,-80.71 351.82,-245.12 190.3,-369.88 -226.95,-175.3 -573.57,308.35 -678.18,523.18l-153.02 316.43c-9.4,-182.98 14.42,-337.75 77.82,-485.48 61.14,-142.48 172.17,-245.71 69.83,-407.19 -226.31,-142.77 -418.23,209.02 -463.43,405.38 247.47,179.06 500.63,478.35 150.08,761.36z"/>
   <path class="fil3" d="M5283.51 7235.61c-6.38,-118.61 104.96,-90.88 232.06,-89.82 288.05,2.36 801.79,-60.46 872.65,81.53 -108.25,79.14 -1000.26,70.67 -1104.71,8.29zm-1086.64 403.17l224.45 -72.66c45.99,-437.79 -6.67,-487.82 704.48,-408.75 44.32,97.47 50.74,104.03 66.97,230.84 667.43,-33.21 823.12,43.54 1407.33,163.61 -18.25,-301.36 6.12,-605.83 -302.67,-653.23 -149.99,-23.03 -1780.31,-19.6 -1883.03,16.46 -234.24,82.25 -219.35,477.89 -217.53,723.73z"/>
   <path class="fil6" d="M480.74 7830.28c112.16,695.63 858.16,816.95 1539.62,597.02 650.43,-209.9 483.46,-340.02 613.54,-540.47 111.01,-171.09 212.19,-87.79 292.86,-286.98 52.23,-128.94 109.11,-327.18 133.31,-466l-498.03 509.33c-176.99,140.19 -369.09,273.28 -598.22,388.49 -811.77,408.15 -1230.45,-78.23 -1483.08,-201.39z"/>
   <path class="fil6" d="M10329 7883.66c-240.13,49.6 -1048.31,726.02 -2123.65,-244.82 -206.51,-186.44 -285.99,-303.18 -472.74,-504.99 181.45,724.64 309.08,576.16 428.92,754.05 93.06,138.12 16.78,311.13 638.21,516.98 637.39,211.14 1375.54,94.8 1529.26,-521.22z"/>
   <path class="fil3" d="M8064.82 6936.41c190.39,185.05 398.34,188.13 757.83,218.31 157.04,13.19 331.12,19.52 411.8,-79.35 90.55,-110.94 -12.93,-239.87 -51.68,-358.35 -155.75,-138.63 -625.08,-1495.57 -997.97,-1095.04 -133.27,129.05 157.5,294.85 225.91,352.48 390.94,329.29 613.22,800.09 -105.89,865.6 -131.01,11.93 -151.33,0.39 -240,96.35z"/>
   <path class="fil7" d="M5963 2670.42c-200.25,97.35 -324.8,364.63 -191.56,605.34 53.4,96.47 103.78,188.84 229.29,220.93 297.34,76.01 470.1,0.69 603.2,-275.27 77.16,-160 54.47,-211.41 -24.34,-341.57 -140.06,-231.38 -356.62,-335.81 -616.59,-209.43z"/>
   <path class="fil3" d="M3098.22 8723.75c177.07,-120.39 397.76,-475.92 1060.83,-774.52 1339.41,-603.17 2760.4,-253.62 3708.15,813.32l158.66 176.59c5.45,5.28 12.86,12.51 18.38,17.52l41.13 33.34c4.63,3.8 14.04,11.47 21.76,16.17 -375.17,-788.41 -1435.46,-1399.09 -2385.69,-1459.91 -1005.06,-64.33 -2203.12,448.31 -2623.22,1177.49z"/>
   <path class="fil6" d="M2686.07 6893.87c-7.33,226.7 -310.71,207.66 -534.84,238.74 -224.73,31.17 -501.5,94.57 -621.74,-96.64 -23.88,-114.77 44.1,-227.35 73.06,-330.1l-275.33 73.82c-24.38,12.83 -244.53,275.59 -446.98,64.29 -55.58,-58.02 -85.68,-146.32 -169.66,-118.01 -99.43,563.46 390.74,728.53 902.46,612.77 234.84,-53.13 371.04,-120.9 652.81,-151.72 118.96,-13.02 731.58,-58.86 420.22,-293.15z"/>
   <path class="fil6" d="M9182.77 6717.02c38.75,118.48 142.23,247.41 51.68,358.35 -80.68,98.87 -254.76,92.54 -411.8,79.35 -359.49,-30.18 -567.44,-33.26 -757.83,-218.31l-33.61 93.8c172.85,175.67 319.26,133.46 582.36,166.68 233.45,29.48 403.69,110.68 628.25,154.69 554.41,108.66 881.95,-96.51 832.35,-669.97 -167.11,99.79 -150.02,277.48 -399.28,235.44 -155.16,-26.17 -144.65,-98.35 -234.03,-143l-258.09 -57.03z"/>
   <path class="fil4" d="M5450.09 10395.41c294.08,-463.25 -542.04,-640.31 -794.89,-182.48 -269.29,487.57 513.7,625.41 794.89,182.48z"/>
   <path class="fil1" d="M5450.09 10395.41c-281.19,442.93 -1064.18,305.09 -794.89,-182.48 252.85,-457.83 1088.97,-280.77 794.89,182.48zm-939.33 80.6c-0.95,-8.89 -197.89,-420.07 275.07,-642.48 258.9,-121.75 617.56,-115.69 728.65,150.7 -93.63,-45.34 -312.76,-265.77 -673.61,-61.77 -227.66,128.69 -298.42,225.2 -330.11,553.55zm-141 -109.8c109.8,405.89 601.77,540.5 971.71,295.17 135,-89.52 286.85,-244.11 313.93,-440.27 36.37,-263.38 -137.71,-386.76 -235.14,-492.85 -551.19,-160.51 -1060.3,102.79 -1050.5,637.95z"/>
   <path class="fil1" d="M7237.81 9703.49c478.7,-159.68 681.66,477.06 506.79,645.01 -226.9,217.9 -643.23,-170.62 -506.79,-645.01zm35.51 -163.23c617.1,-174.97 879.48,652.33 548.82,886.67 188.44,-312.16 7.4,-654.88 -220.15,-791.34 -172.45,-103.42 -212.8,-36.58 -328.67,-95.33zm-214.32 430.95c130.45,491.6 495.27,758.73 800.57,560.46 500.45,-325.01 -44.21,-946.92 -82.32,-1005.84 -158.62,-92.08 -321.17,-196.63 -536.44,-57.73 -145.12,93.63 -183.36,277.99 -181.81,503.11z"/>
   <path class="fil1" d="M7231.25 11807.38c91.34,437.36 -626.23,732.02 -763,521.23 -144.05,-222 364.36,-709.02 763,-521.23zm120.87 -29.92c415.09,473.01 -1069.8,1223.49 -998.91,538.84 66.7,256.96 450.06,189.05 645.25,71.16 136.32,-82.33 301.99,-235.91 322.92,-416.13 26.48,-228.08 -62.87,-179.88 30.74,-193.87zm-1082.82 709.72c238.48,269.28 497.29,257.24 817.91,56.05 194.28,-121.93 425.87,-339.95 422.04,-661.18 -72.48,-175.76 -89.54,-236.42 -334.09,-249.98 -182.22,-10.1 -343.87,47.77 -470.47,121.47 -211.24,122.99 -480.14,365.53 -435.39,733.64z"/>
   <path class="fil1" d="M4567.62 12289.07c312.86,-215.58 948.14,7.55 900.83,238.33 -39.88,194.52 -822.1,157.24 -900.83,-238.33zm-129.25 192.05c118.73,207.66 251.15,372.7 580.6,420.05 338.63,48.68 583.26,-55.09 566.21,-402.27 -58.59,-222.52 -320.3,-371.9 -579.19,-403.01 -350.43,-42.1 -566.11,39.74 -567.62,385.23z"/>
   <path class="fil3" d="M2703.57 8255.07c254.42,55.03 476.11,-88.75 715.53,-133.54 109.44,-69.67 213.2,-152 318.79,-220.5 105.94,-68.72 238.51,-98.6 280.01,-223.46 -474.78,-39.32 -1354.55,36.71 -1314.33,577.5z"/>
   <path class="fil3" d="M3381.44 1119.6c774.97,-336.54 903.78,-445.97 1966.09,-445.97 925.81,0 1193.62,70.43 1927.82,403.31 -892.34,-772.34 -3185.38,-710.17 -3893.91,42.66z"/>
   <path class="fil1" d="M5317.53 8616.01c0.88,404.88 -703.5,382.34 -769.18,227.81 -58.13,-136.74 157.37,-233.15 272.39,-265.3 212.65,-59.45 344.22,-32.55 496.79,37.49zm-919.07 214.21c-209.98,-373.18 476.94,-603.86 901.57,-458.95 169.51,57.86 189.87,121.08 159.43,304.56l-54.21 -68.03c-129.32,-169.53 -319.96,-180.48 -554.17,-131.13 -321.72,67.79 -289.87,164.11 -452.62,353.55zm508.75 -589.67c-880.15,98.92 -827.14,904.95 32.62,802.65 834.88,-99.34 810.94,-897.46 -32.62,-802.65z"/>
   <path class="fil1" d="M2887.66 10441.59c-81.62,336.34 12.79,568.58 238.62,781.5 113.04,106.57 138.25,52.55 243.69,116.73 -344.09,220.88 -740.28,-608.81 -538.51,-854.79 7.33,-8.94 19.93,-15.18 26.67,-22.09 7.09,-7.26 19.9,-13.94 29.53,-21.35zm475.29 755.31c-310.26,52.85 -489.63,-476.03 -363.08,-737.73 180.2,23.4 263.75,135.92 332.47,286.52 68.85,150.89 113.13,294.22 30.61,451.21zm-670.87 -467.59c50.76,367.36 257.38,772.25 650.84,731.2 350.11,-220.59 130.13,-588.01 36.3,-876.54 -166.05,-133.67 -199.48,-318.26 -542.54,-248.35 -109.94,94 -146.41,179.45 -144.6,393.69z"/>
   <path class="fil4" d="M7231.25 11807.38c-398.64,-187.79 -907.05,299.23 -763,521.23 136.77,210.79 854.34,-83.87 763,-521.23z"/>
   <path class="fil4" d="M7237.81 9703.49c-136.44,474.39 279.89,862.91 506.79,645.01 174.87,-167.95 -28.09,-804.69 -506.79,-645.01z"/>
   <path class="fil3" d="M7590.32 8100.33c210.96,55.86 277.68,135.75 514.46,116.36 -47.12,-293.16 -177.07,-358.12 -439.74,-443.92 -223.89,-73.13 -512.8,-118.61 -758.62,-90.93l683.9 418.49z"/>
   <path class="fil4" d="M4567.62 12289.07c78.73,395.57 860.95,432.85 900.83,238.33 47.31,-230.78 -587.97,-453.91 -900.83,-238.33z"/>
   <path class="fil8" d="M2385.77 3927.6c-11.04,-211.44 -27.35,-376.1 -19.71,-595.34l59.04 -457.9c0.09,-10.17 0.55,-18.67 -0.23,-28.8 -0.8,-10.42 -2.17,-19.23 -3.78,-29.39 -9.88,-62.22 -18.16,-70.11 -29.51,-92.67 -290.98,73.66 -269.89,306.13 -270.59,604.6 -0.77,334.79 -29.76,525.18 264.78,599.5z"/>
   <path class="fil4" d="M5317.53 8616.01c-152.57,-70.04 -284.14,-96.94 -496.79,-37.49 -115.02,32.15 -330.52,128.56 -272.39,265.3 65.68,154.53 770.06,177.07 769.18,-227.81z"/>
   <path class="fil4" d="M3362.95 11196.9c82.52,-156.99 38.24,-300.32 -30.61,-451.21 -68.72,-150.6 -152.27,-263.12 -332.47,-286.52 -126.55,261.7 52.82,790.58 363.08,737.73z"/>
   <path class="fil4" d="M3819.68 9721.68c194.19,-156.5 21.23,-295.45 -106.38,-372.04 -262.62,-157.63 -412.71,-64.79 -396.14,264.14 132.61,64.5 316.04,206.15 502.52,107.9z"/>
   <path class="fil4" d="M6523.1 8934.43c146.17,-245.22 -27.1,-485.52 -296.02,-395.61 -343.69,114.88 40.49,824.33 296.02,395.61z"/>
   <path class="fil3" d="M9025.78 6319.05c95.25,-222.71 143.32,-259.11 315.72,-380.15 -164.73,-516.79 -709.33,-625.33 -421.21,-35.35 70.35,144.03 92.62,253.06 105.49,415.5z"/>
   <path class="fil4" d="M6188.65 10773.25c298.33,358.54 760.3,-33.84 457.85,-258.74 -172.52,-15.62 -187.64,-44.58 -364.41,8.69l-59.91 202.46c-2.49,6.51 -13.55,29.42 -15.56,24.39 -2.05,-5.1 -11.62,15.76 -17.97,23.2z"/>
   <path class="fil4" d="M4398.46 8830.22c162.75,-189.44 130.9,-285.76 452.62,-353.55 234.21,-49.35 424.85,-38.4 554.17,131.13l54.21 68.03c30.44,-183.48 10.08,-246.7 -159.43,-304.56 -424.63,-144.91 -1111.55,85.77 -901.57,458.95z"/>
   <path class="fil4" d="M4454.92 11235.97l-4.63 -11.29c-50.33,-28.09 -97.9,-59.37 -190.49,-61.46 -181.39,-4.12 -128.78,92.42 -161.43,-11 -0.02,0.01 -128.77,72.8 -56.93,279.33 110.01,316.31 574.4,61.55 413.48,-195.58z"/>
   <path class="fil3" d="M1068.91 6142.21c42.53,104.07 106.58,105.4 185.4,192.38 84.17,92.87 81.14,162.1 151.95,246.65 424.02,-57.88 13.29,-712.63 -337.35,-439.03z"/>
   <path class="fil3" d="M9390.7 6581.24c50.16,-86.54 62.32,-158.71 127.32,-237.59 41.73,-50.62 44.49,-42.66 88.99,-81.03 119.43,-102.94 50.4,2.73 97.49,-114.26 -247.3,-303.83 -800.19,369.3 -313.8,432.88z"/>
   <path class="fil1" d="M5283.51 7235.61c104.45,62.38 996.46,70.85 1104.71,-8.29 -70.86,-141.99 -584.6,-79.17 -872.65,-81.53 -127.1,-1.06 -238.44,-28.79 -232.06,89.82z"/>
   <path class="fil9" d="M4369.76 10366.21c-9.8,-535.16 499.31,-798.46 1050.5,-637.95 -73.26,-128.95 -224,-152.02 -378.74,-149.01 -518.06,10.11 -902.73,574.41 -671.76,786.96z"/>
   <path class="fil4" d="M7352.12 11777.46c-93.61,13.99 -4.26,-34.21 -30.74,193.87 -20.93,180.22 -186.6,333.8 -322.92,416.13 -195.19,117.89 -578.55,185.8 -645.25,-71.16 -70.89,684.65 1414,-65.83 998.91,-538.84z"/>
   <path class="fil6" d="M2703.57 8255.07c9.22,149.19 17.19,163.57 74.98,292.37 207.99,-83.54 453.65,-164.96 640.55,-425.91 -239.42,44.79 -461.11,188.57 -715.53,133.54z"/>
   <path class="fil4" d="M4510.76 10476.01c31.69,-328.35 102.45,-424.86 330.11,-553.55 360.85,-204 579.98,16.43 673.61,61.77 -111.09,-266.39 -469.75,-272.45 -728.65,-150.7 -472.96,222.41 -276.02,633.59 -275.07,642.48z"/>
   <path class="fil3" d="M9616.07 6708.51l145.68 47.97c76.49,-80.1 64.34,-94.26 116.42,-154.11 77.9,-89.51 103.67,-53.73 149.07,-148.22 9.04,-116.77 -204.13,-242.91 -395.46,38.03 -67.65,99.36 -56.5,95.17 -15.71,216.33z"/>
   <path class="fil3" d="M757.78 6454.15l274.74 296.25 115.42 -12.8c147.83,-261.2 -149.64,-418.15 -253.03,-414.76 -110.93,3.65 -104.04,36.98 -137.13,131.31z"/>
   <path class="fil9" d="M7059 9971.21c-1.55,-225.12 36.69,-409.48 181.81,-503.11 215.27,-138.9 377.82,-34.35 536.44,57.73 -284.75,-398.57 -712.32,-254.29 -776.05,109.7 -26.3,150.15 -22.51,232.81 57.8,335.68z"/>
   <path class="fil10" d="M4571.19 7274.71l-17.62 227.06c150.64,-16.64 410.55,-46.97 513.59,-130.26 -24.63,-130.21 -38.78,-122.44 -194.51,-126.82 -104.37,-2.93 -208.16,-2 -301.46,30.02z"/>
   <path class="fil4" d="M2858.13 10462.94c-6.74,6.91 -19.34,13.15 -26.67,22.09 -201.77,245.98 194.42,1075.67 538.51,854.79 -105.44,-64.18 -130.65,-10.16 -243.69,-116.73 -225.83,-212.92 -320.24,-445.16 -238.62,-781.5 -9.63,7.41 -22.44,14.09 -29.53,21.35z"/>
   <path class="fil6" d="M8104.78 8216.69c-236.78,19.39 -303.5,-60.5 -514.46,-116.36l212.24 247.7c65.8,64.24 163.58,145.18 213.17,196.73 74.71,-95.98 81.08,-192.79 89.05,-328.07z"/>
   <path class="fil4" d="M7822.14 10426.93c330.66,-234.34 68.28,-1061.64 -548.82,-886.67 115.87,58.75 156.22,-8.09 328.67,95.33 227.55,136.46 408.59,479.18 220.15,791.34z"/>
   <path class="fil9" d="M2692.08 10729.31c-1.81,-214.24 34.66,-299.69 144.6,-393.69 343.06,-69.91 376.49,114.68 542.54,248.35 -191.75,-553.26 -886.31,-504.8 -687.14,145.34z"/>
   <path class="fil3" d="M7435.09 5613c51.32,122.63 224.49,237.29 362.73,314.24 -31.81,-231.35 -117.63,-344.26 -318.07,-394.46l-44.66 80.22z"/>
   <path class="fil3" d="M3009.22 5936.48c96.97,-95.96 279.01,-168.22 333.56,-301.91l-61.62 -74.47c-180.78,37.39 -279.49,159.05 -271.94,376.38z"/>
   <path class="fil1" d="M6188.65 10773.25c6.35,-7.44 15.92,-28.3 17.97,-23.2 2.01,5.03 13.07,-17.88 15.56,-24.39l59.91 -202.46c176.77,-53.27 191.89,-24.31 364.41,-8.69 -218.82,-181.92 -527.63,-122.44 -457.85,258.74z"/>
   <path class="fil1" d="M4098.37 11152.22c32.65,103.42 -19.96,6.88 161.43,11 92.59,2.09 140.16,33.37 190.49,61.46l4.63 11.29c-66.29,-180.44 -213.12,-136.5 -356.55,-83.75z"/>
  </g>
 </g>
</svg>
