<?xml version="1.0" encoding="UTF-8"?>
<!DOCTYPE svg PUBLIC "-//W3C//DTD SVG 1.1//EN" "http://www.w3.org/Graphics/SVG/1.1/DTD/svg11.dtd">
<!-- Creator: CorelDRAW -->
<svg xmlns="http://www.w3.org/2000/svg" xml:space="preserve" width="100mm" height="110mm" version="1.1" style="shape-rendering:geometricPrecision; text-rendering:geometricPrecision; image-rendering:optimizeQuality; fill-rule:evenodd; clip-rule:evenodd"
viewBox="0 0 10000 11000"
 xmlns:xlink="http://www.w3.org/1999/xlink"
 xmlns:xodm="http://www.corel.com/coreldraw/odm/2003">
 <defs>
  <style type="text/css">
   <![CDATA[
    .str0 {stroke:#191923;stroke-width:7.62;stroke-miterlimit:10}
    .fil14 {fill:#1698F9;fill-rule:nonzero}
    .fil1 {fill:#191923;fill-rule:nonzero}
    .fil16 {fill:#226CBA;fill-rule:nonzero}
    .fil4 {fill:#22A7F0;fill-rule:nonzero}
    .fil22 {fill:#294F91;fill-rule:nonzero}
    .fil3 {fill:#371A45;fill-rule:nonzero}
    .fil17 {fill:#4F80BB;fill-rule:nonzero}
    .fil15 {fill:#5CB7FB;fill-rule:nonzero}
    .fil20 {fill:#6E8EBC;fill-rule:nonzero}
    .fil13 {fill:#7CB5B8;fill-rule:nonzero}
    .fil10 {fill:#857B8C;fill-rule:nonzero}
    .fil19 {fill:#8BCCFC;fill-rule:nonzero}
    .fil9 {fill:#8C7B94;fill-rule:nonzero}
    .fil12 {fill:#96CBDD;fill-rule:nonzero}
    .fil11 {fill:#A5F1F6;fill-rule:nonzero}
    .fil5 {fill:#AFAFB2;fill-rule:nonzero}
    .fil2 {fill:#B9AFBE;fill-rule:nonzero}
    .fil7 {fill:#C3BAC7;fill-rule:nonzero}
    .fil21 {fill:#DB2C2C;fill-rule:nonzero}
    .fil8 {fill:#E7E7E8;fill-rule:nonzero}
    .fil18 {fill:#FF66AC;fill-rule:nonzero}
    .fil6 {fill:#FFE9DE;fill-rule:nonzero}
    .fil0 {fill:white;fill-rule:nonzero}
   ]]>
  </style>
 </defs>
 <g id="Camada_x0020_1">
  <metadata id="CorelCorpID_0Corel-Layer"/>
  <path class="fil0" d="M6612.33 9301.82l-2785.31 0c-477.7,0 -868.53,-390.83 -868.53,-868.54l0 -2460.88c0,-477.71 390.83,-868.53 868.53,-868.53l2785.31 0c477.71,0 868.53,390.82 868.53,868.53l0 2460.88c0,477.71 -390.82,868.54 -868.53,868.54z"/>
  <path class="fil1" d="M6612.33 4966.59l-2785.31 0c-135.28,0 -266.8,26.72 -390.9,79.46 -119.64,50.8 -227.15,123.44 -319.6,215.85 -92.4,92.46 -165.05,199.96 -215.84,319.59 -52.76,124.11 -79.47,255.62 -79.47,390.91l0 2460.88c0,135.29 26.71,266.81 79.47,390.95 50.79,119.6 123.44,227.1 215.84,319.56 92.45,92.4 199.96,165.04 319.6,215.89 124.1,52.7 255.62,79.42 390.9,79.42l2785.31 0c135.29,0 266.79,-26.72 390.91,-79.42 119.62,-50.85 227.13,-123.49 319.55,-215.89 92.45,-92.46 165.09,-199.96 215.89,-319.56 52.71,-124.14 79.46,-255.66 79.46,-390.95l0 -2460.88c0,-135.29 -26.75,-266.8 -79.46,-390.91 -50.8,-119.63 -123.44,-227.13 -215.89,-319.59 -92.42,-92.41 -199.93,-165.05 -319.55,-215.85 -124.12,-52.74 -255.62,-79.46 -390.91,-79.46zm0 137.28c477.71,0 868.53,390.82 868.53,868.53l0 2460.88c0,477.71 -390.82,868.54 -868.53,868.54l-2785.31 0c-477.7,0 -868.53,-390.83 -868.53,-868.54l0 -2460.88c0,-477.71 390.83,-868.53 868.53,-868.53l2785.31 0z"/>
  <path class="fil0" d="M7418.61 7780.18c-433.66,50.83 -865.9,63.3 -865.9,63.3 0,0 -220.16,-1097.63 -281.16,-1958.36 -44.95,-637.74 -2.67,-1145.24 281.16,-979.68 130.58,76.18 280.96,219.62 437.78,401.53 588.11,682.73 1263.89,1908.58 1301,2162.99 23.85,163.56 -425.14,257.42 -872.88,310.22z"/>
  <path class="fil1" d="M6454.37 4945.18c-13.76,0 -20.98,5.16 -24.91,8 -46.55,33.22 -186.15,240.12 -28.19,1506.5 71.5,573.52 175.37,1131.09 209.85,1310.34 121.75,-4.9 410.7,-18.99 711.7,-51 698.81,-74.36 854.88,-178.46 889.64,-219.77 9.52,-11.45 8.77,-16.74 8.45,-18.98 -20.22,-138.65 -283.88,-669.82 -644,-1239.47 -417.06,-659.7 -803.45,-1123.95 -1060.09,-1273.66 -29.14,-16.99 -48.92,-21.96 -62.45,-21.96zm40.29 2971.41l-11.85 -59.02c-1.33,-6.71 -135.94,-681.16 -223.06,-1379.54 -51.38,-411.72 -76.48,-751.64 -74.69,-1010.36 2.48,-353.36 53.78,-553.72 161.45,-630.64 47.27,-33.77 127.68,-60.01 242.2,6.82 377.58,220.29 856.76,921.99 1108.82,1320.71 168.11,265.93 329.04,545.44 453.22,787.06 87.37,170.26 195.07,396.59 211.44,507.99 4.7,32.35 1.49,81.42 -40.43,131.4 -60.75,72.28 -186.73,128.8 -396.7,177.91 -153.95,36 -351.75,67 -587.96,92.1 -399.88,42.48 -778.51,53.73 -782.27,53.85l-60.17 1.72z"/>
  <path class="fil0" d="M4346.03 4864.92l-87.78 663.98 -49.94 377.48 -106.49 805.97c0,0 -194.62,132.34 -518.41,237.23 -120.93,39.26 -260.25,74.4 -414.05,97.43 -251.35,37.82 -541.92,42.6 -856.8,-21.77 -810.05,-165.92 -1296.16,-767.61 -1506.66,-1070.18 -406.71,-583.84 -469.33,-741.72 -356.24,-987.53 86.35,-188.39 234.23,-222.83 234.23,-222.83 0,0 -7.32,-150.54 111.84,-204.08 357.14,-160.35 817.19,267.93 817.19,267.93 0,0 17.15,-460.6 263.66,-354.26 169.85,73.3 208.36,574.78 208.36,574.78 0,0 228.01,292.88 590.13,331.79 189.24,20.32 451.14,-34.59 711.23,-114.33 3.03,-0.91 6.09,-1.81 9.1,-2.87 138.62,-42.83 276.34,-92.41 402.44,-141.48 56.56,-21.92 110.77,-43.85 161.64,-64.91 227.26,-94.18 386.55,-172.35 386.55,-172.35z"/>
  <path class="fil2" d="M2223.16 6931.14c-521.12,-136.34 -989.11,-485.98 -1358.7,-1016.79 -264.83,-380.31 -371.25,-566.67 -390.65,-702.61 43.73,80.92 99.73,170.38 165.13,273.9 50.03,79.15 142.76,270.91 498.19,575.45 194.48,166.66 699.84,494.84 1360.76,523.71 -28.48,81.97 -61.19,152.81 -97.91,212.04 -54.48,8.87 -104.53,36.6 -141.16,79.04 -14.56,16.86 -26.47,35.5 -35.66,55.26zm933.72 -137.4l-642.13 0c19.54,-36.76 37.74,-76.64 54.64,-119.56 10.95,-27.8 21.38,-56.95 31.26,-87.34 180.16,-0.83 370.94,-24.52 569.1,-79.86 27.26,-7.62 51.93,-16.75 74.37,-27.19 -3.19,9.15 -6.35,18.32 -9.45,27.5 -10.09,29.93 -19.69,60.05 -28.76,90.3 -8.86,30.27 -17.77,60.59 -24.78,91.38 -7.38,30.72 -14.32,61.51 -21.42,92.3 -0.94,4.15 -1.89,8.31 -2.83,12.47z"/>
  <path class="fil1" d="M700.41 4814.05c-9.21,2.51 -118.16,35.14 -186.04,183.1 -91.42,199.25 -68.97,315.39 350.09,917.2 393.95,565.75 899.64,925.71 1462.41,1040.95 512.77,105 958.16,16.67 1241.51,-75.89 240.21,-78.49 405.88,-172.12 467.11,-209.54l222.64 -1685c-116.34,53.07 -306.53,136.5 -520.06,216.5 -475.24,178.09 -835.44,255.59 -1070.54,230.41 -387.8,-41.54 -628.79,-345.91 -638.83,-358.86 -8.63,-11.06 -13.77,-24.4 -14.87,-38.35 -0.07,-1.18 -9.76,-122.97 -39.23,-250.88 -49.73,-215.69 -109.15,-256.45 -126.18,-263.82 -42.64,-18.39 -61.03,-6.83 -67.97,-2.44 -59.94,37.74 -92.45,194.51 -96.37,293.79 -1.11,27.89 -18.32,52.6 -44.13,63.23 -25.77,10.59 -55.38,5.25 -75.79,-13.73 -4.23,-3.91 -429.7,-394 -739.21,-254.96 -71.32,32.06 -70.01,128.71 -69.81,135.68 2.08,35.23 -20.24,65.31 -54.73,72.61zm2100.95 2331.96c-169.13,0 -337.56,-16.98 -503.12,-50.87 -364.11,-74.57 -703.83,-242.49 -1009.64,-499.05 -196.84,-165.16 -378.94,-367.09 -541.26,-600.2 -198.09,-284.48 -323.99,-479.89 -381.41,-636.87 -55.02,-150.38 -49.58,-272.49 18.73,-421.38 67.28,-146.62 168.97,-214.04 230.46,-242.95 10.05,-75.39 49.13,-173.17 151.35,-219.06 290.42,-130.5 625.51,71.42 791.38,195.64 1.65,-8.43 3.42,-17.06 5.38,-25.81 27.5,-123.32 74.95,-207.02 141.05,-248.72 40.6,-25.61 108.34,-47.77 200.71,-7.88 93.7,40.48 162.07,159.69 209.05,364.43 24.05,104.89 35.62,203.33 39.97,246.95 50.45,57.07 247.54,259.51 528.74,289.62 513.24,55 1620.68,-483.58 1631.82,-489.03 23.61,-11.57 51.66,-9.22 73.03,6.16 21.34,15.34 32.52,41.19 29.07,67.27l-244.05 1847.34c-2.67,20.16 -13.8,38.22 -30.6,49.67 -8.16,5.52 -203.88,137.47 -529.32,243.77 -190.63,62.29 -386.74,102.89 -582.86,120.65 -76.17,6.87 -152.43,10.32 -228.48,10.32z"/>
  <path class="fil1" d="M1671.6 4808.48c1.69,20.04 -1.33,38.28 -5.33,54.12 -2,8.16 -4.47,15.22 -6.99,22.48 -2.54,6.78 -5.33,13.69 -8.07,19.89 -11.3,25.33 -23.42,46.28 -34.99,66.68 -11.61,20.23 -22.8,39.49 -33.18,58.8l-7.61 14.47c-2.4,4.87 -4.94,9.69 -7.26,14.59l-6.74 14.75 -6.44 14.9 -5.84 15.18 -5.41 15.38c-1.84,5.13 -3.22,10.4 -4.87,15.61 -1.69,5.21 -3.02,10.55 -4.43,15.89 -5.41,21.29 -10.08,43.3 -12.79,65.89 -2.94,22.6 -4.87,45.77 -5.37,69.34 -0.59,11.85 -0.35,23.74 -0.47,35.78 -0.2,6.04 0.31,12 0.36,18.08 0.11,6.08 0.31,12.16 0.26,18.31l0 0.48c0,4.74 -3.84,8.59 -8.59,8.55 -3.33,0 -6.19,-1.88 -7.64,-4.63 -11.41,-22.2 -21.78,-45.26 -29.78,-69.38 -8.42,-24.01 -14.47,-48.99 -18.9,-74.61 -8.74,-51.23 -8.51,-105.43 1.05,-158.39l3.97 -19.76c1.53,-6.52 3.22,-12.99 4.82,-19.53 1.73,-6.48 3.65,-12.84 5.46,-19.26 1.88,-6.44 4.12,-12.63 6.19,-18.99 8.6,-25.07 19.22,-48.91 30.2,-71.27 10.87,-22.32 22.52,-43.38 31.9,-61.65 9.92,-18.56 15.53,-33.54 18.82,-41.7l6.95 -16.99c12,-29.45 45.61,-43.58 75.07,-31.57 20.75,8.43 33.89,27.69 35.65,48.56z"/>
  <path class="fil1" d="M2234.15 7074.27c-18,0 -35.34,-10 -43.93,-27.22 -12.04,-24.24 -2.2,-53.67 22.08,-65.74 197.81,-98.41 332.93,-405.53 390.75,-888.14 44.83,-374.07 26.23,-721.92 26.04,-725.4 -1.53,-27.03 19.18,-50.17 46.2,-51.7 26.91,-1.49 50.17,19.18 51.7,46.24 0.2,3.53 19.26,358.78 -26.39,741.21 -27.06,226.29 -71.19,418.28 -131.21,570.66 -77.66,197.23 -183.13,330.11 -313.44,394.91 -7.01,3.49 -14.47,5.18 -21.8,5.18z"/>
  <path class="fil0" d="M7572.37 9025.69l-4710.37 0c0,0 28.75,-812.91 307.36,-1978.68 111.7,-467.58 263.66,-991.85 470.06,-1543.26 49.61,-132.38 102.4,-266.32 158.42,-401.57 156.62,-377.28 339.29,-763.68 552.31,-1150.04l1734.11 0c176.07,319.48 331.44,638.8 468.45,953.3 88.64,203.37 169.63,404.59 243.49,602.24 322.35,861.62 511.61,1656.88 622.41,2272.5 136.61,759.4 153.76,1245.51 153.76,1245.51z"/>
  <path class="fil1" d="M6925.76 6113.92c91.04,101.62 132.62,219.93 171.1,338.73 19.26,59.46 38.32,118.97 56.48,178.79 9.06,29.89 18.44,59.74 26.56,89.9 8.35,30.08 16.47,60.28 24.63,90.44l23.85 90.65c7.83,30.24 15.76,60.44 23.14,90.8l43.34 182.4c7.02,30.43 14.79,60.67 21.68,91.15l20.65 91.43 21.21 91.24c7.18,30.43 14.52,60.74 21.18,91.27l40.88 182.9c7.01,30.43 13.05,61.1 19.53,91.66l19.14 91.71 9.6 45.89 4.75 22.95 4.47 22.97 17.97 91.99c5.96,30.67 12.12,61.3 18.6,91.86 6.19,30.67 12.43,61.3 18.94,91.86 27.29,122.1 47.18,245.78 55.49,371.1 1.11,15.65 2.28,31.26 3.06,46.98l2.01 47.11c1.02,31.46 1.88,62.88 1.45,94.53 -0.19,31.58 -0.94,63.15 -2.94,94.92 -1.84,31.69 -4.52,63.42 -9.27,95.43 -0.93,6.16 -6.66,10.44 -12.82,9.49 -4.19,-0.62 -7.49,-3.49 -8.9,-7.18l-0.04 -0.11c-22.51,-59.82 -40.91,-119.9 -58.29,-180 -8.54,-30.04 -16.79,-60.17 -24.74,-90.25l-11.46 -45.22c-3.6,-15.1 -7.34,-30.17 -11.1,-45.27 -14.59,-60.37 -27.45,-120.89 -39.03,-181.69 -5.61,-30.43 -10.63,-60.95 -15.26,-91.54 -4.98,-30.55 -9.6,-61.15 -14.31,-91.75 -4.63,-30.63 -9.54,-61.18 -14.48,-91.78 -5.25,-30.51 -11.1,-60.91 -17.01,-91.3l-17.78 -91.17 -4.43 -22.82 -4.75 -22.72 -9.49 -45.49 -18.99 -90.93c-6.42,-30.31 -12.42,-60.67 -19.36,-90.88l-40.56 -181.36c-6.51,-30.29 -14.08,-60.33 -21.3,-90.46l-22.16 -90.25 -22.75 -90.1c-3.69,-15.05 -7.88,-29.96 -11.85,-44.9l-12.2 -44.88 -48.99 -179.25c-16.98,-59.58 -34.27,-119.04 -50.8,-178.74 -8.23,-29.85 -16.47,-59.67 -24.47,-89.59l-5.96 -22.43 -6.35 -22.36 -12.44 -44.76c-16.58,-59.66 -32.32,-119.59 -47.81,-179.6l-11.37 -45.07c-3.81,-15.03 -8.01,-29.92 -12.01,-44.91 -7.96,-29.96 -14.59,-60.33 -19.65,-91.19 -4.98,-30.91 -8.47,-62.29 -9.81,-94.37 -0.7,-16.05 -0.78,-32.28 -0.19,-48.76 0.62,-16.52 1.69,-33.15 4.59,-50.41l0.07 -0.66c1.11,-6.51 7.3,-10.91 13.81,-9.81 2.79,0.47 5.18,1.84 6.94,3.81z"/>
  <path class="fil1" d="M2851.02 9025.29c-7.29,-16.16 -12.24,-32.2 -16.91,-48.32 -4.71,-16.16 -8.19,-32.13 -11.25,-48.2 -6.32,-32.17 -9.69,-64.14 -11.57,-96.03 -0.87,-15.97 -1.46,-31.93 -1.41,-47.78 0.07,-15.88 0.66,-31.68 1.45,-47.53l2.66 -47.43c0.83,-15.8 1.81,-31.61 3.11,-47.37 4.89,-63.07 9.64,-126.23 17.05,-188.98 3.34,-31.47 7.03,-62.84 10.75,-94.26 1.77,-15.69 4.19,-31.3 6.31,-46.99l6.63 -46.91 13.89 -93.78c4.82,-31.22 10.51,-62.29 15.77,-93.43 10.86,-62.25 21.02,-124.62 33.38,-186.56 12,-61.96 22.98,-124.14 35.3,-186.08 12.47,-61.84 24.63,-123.78 36.59,-185.76 3.07,-15.48 5.85,-31.01 9.14,-46.43l9.89 -46.29 19.73 -92.61 19.73 -92.56c1.68,-7.72 3.25,-15.46 5.02,-23.15l5.41 -23.01 10.79 -46.1 43.26 -184.3c3.49,-15.38 7.41,-30.68 11.29,-45.98 3.77,-15.29 7.62,-30.59 11.22,-45.97 7.25,-30.71 14.52,-61.42 21.46,-92.21 7.1,-30.79 14.04,-61.58 21.42,-92.3 7.01,-30.79 15.92,-61.11 24.78,-91.38 9.07,-30.25 18.67,-60.37 28.76,-90.3 10.11,-29.93 20.86,-59.7 31.73,-89.39l16.78 -44.36c2.83,-7.41 5.92,-14.71 9.03,-22 3.1,-7.29 6.08,-14.63 9.29,-21.89 12.63,-29.15 25.5,-58.17 39.11,-86.96 13.49,-28.83 27.57,-57.43 42.36,-85.75 14.83,-28.36 30.12,-56.48 47.15,-83.97 3.25,-5.3 10.2,-6.94 15.49,-3.69 3.61,2.23 5.53,6.2 5.33,10.2l0 0.16c-7.06,129.43 -31.34,252.59 -55.26,375.76 -6.12,30.71 -12.44,61.39 -19.29,91.86 -6.96,30.48 -14.41,60.8 -22.37,90.96 -16.55,60.17 -33.14,120.34 -50.48,180.31 -8.7,30 -17.1,60.05 -25.49,90.14 -4.24,15.06 -8.2,30.12 -12.24,45.22 -3.96,15.1 -8.04,30.17 -11.45,45.39l-42.79 182.39 -10.68 45.57 -5.37 22.79c-1.73,7.61 -3.26,15.25 -4.94,22.87l-19.49 91.62 -19.54 91.59 -9.77 45.77c-3.29,15.27 -6,30.63 -9.06,45.97 -50.12,244.72 -83.81,492.37 -116.57,739.49l-12.71 92.64c-3.95,30.91 -7.92,61.82 -12.23,92.69l-25.26 185.25c-4.56,30.83 -8.28,61.74 -12.4,92.61 -2.16,15.45 -4.47,30.87 -7.34,46.24 -2.82,15.38 -5.57,30.72 -9.02,46.05 -6.86,30.68 -15.37,61.26 -25.49,91.79 -5.02,15.26 -11.02,30.55 -17.18,45.73 -6.31,15.26 -13.18,30.55 -21.65,45.73l-0.09 0.16c-3.29,5.88 -10.7,8 -16.58,4.71 -2.4,-1.34 -4.16,-3.34 -5.18,-5.65z"/>
  <path class="fil0" d="M4218.71 8000.06c-268.65,108.73 -684.41,85.98 -967.88,51.7 -170,-20.59 -289.32,-177.45 -264.29,-346.85 22.86,-154.59 158.93,-267 315,-259.71 265.15,12.44 662.8,18.25 914.65,-37.61l2.52 592.47z"/>
  <path class="fil3" d="M3287.06 7516.24c-115.08,0 -212.9,83.82 -229.92,199.1 -9.3,62.84 6.78,125.29 45.3,175.76 38.4,50.32 94.14,82.22 156.98,89.82 405.29,49.03 736.46,32.36 932.5,-47.02 58.21,-23.58 74.91,-117.92 79.43,-157.37 15.64,-138.03 -26.37,-265.63 -52.64,-296.49 -255.46,53.69 -640.33,49.58 -920.5,36.47 -3.73,-0.19 -7.46,-0.27 -11.15,-0.27zm397.5 635.19c-155.41,0 -309.95,-12.83 -442.29,-28.83 -101.34,-12.28 -191.33,-63.73 -253.26,-144.93 -62.09,-81.35 -88.01,-181.92 -73.04,-283.19 13.61,-92.3 60.76,-175.85 132.69,-235.19 72.06,-59.38 163.02,-89.74 256.22,-85.36 390.55,18.32 708.69,5.54 895.86,-36 37.58,-8.32 130.93,-8.63 186.04,168.54 55.98,180 49.77,482.38 -141.33,559.72 -157.55,63.77 -359.95,85.24 -560.89,85.24z"/>
  <path class="fil0" d="M6273.55 8000.06c268.65,108.73 684.42,85.98 967.84,51.7 170.04,-20.59 289.36,-177.45 264.34,-346.85 -22.87,-154.59 -158.94,-267 -315.04,-259.71 -265.12,12.44 -662.81,18.25 -914.62,-37.61l-2.52 592.47z"/>
  <path class="fil3" d="M6273.55 7480.04c-26.32,30.86 -68.33,158.46 -52.64,296.49 4.47,39.45 21.19,133.79 79.43,157.37 196,79.38 527.17,96.05 932.51,47.02 62.8,-7.6 118.53,-39.5 156.93,-89.82 38.52,-50.47 54.64,-112.92 45.35,-175.76 -17.62,-118.97 -121.21,-204.4 -241.12,-198.83 -280.13,13.11 -665,17.22 -920.46,-36.47zm534.11 671.39c-200.94,0 -403.3,-21.47 -560.9,-85.24 -191.05,-77.34 -197.25,-379.72 -141.28,-559.72 55.11,-177.17 148.46,-176.89 186.04,-168.54 187.17,41.54 505.31,54.32 895.83,36 93.27,-4.35 184.2,25.98 256.21,85.36 71.97,59.34 119.08,142.89 132.73,235.19 14.98,101.27 -10.94,201.84 -73.03,283.19 -61.98,81.2 -151.91,132.65 -253.27,144.93 -132.31,16 -286.92,28.83 -442.33,28.83z"/>
  <path class="fil0" d="M6377.38 7211.79l0 949.45c0,176.15 -144.19,320.33 -320.34,320.33l-1748.55 0c-175.92,0 -320.11,-144.18 -320.11,-320.33l0 -949.45c0,-176.16 144.19,-320.1 320.11,-320.1l1748.55 0c103.7,0 196.28,49.96 254.99,126.92 40.96,53.73 65.35,120.73 65.35,193.18z"/>
  <path class="fil3" d="M4308.57 6962.99c-137.21,0 -248.84,111.59 -248.84,248.8l0 949.56c0,137.21 111.63,248.83 248.84,248.83l1748.59 0c137.2,0 248.79,-111.62 248.79,-248.83l0 -949.56c0,-137.21 -111.59,-248.8 -248.79,-248.8l-1748.59 0zm1748.59 1589.9l-1748.59 0c-215.89,0 -391.53,-175.65 -391.53,-391.54l0 -949.56c0,-215.89 175.64,-391.54 391.53,-391.54l1748.59 0c215.88,0 391.53,175.65 391.53,391.54l0 949.56c0,215.89 -175.65,391.54 -391.53,391.54z"/>
  <path class="fil4" d="M6078.41 7686.59c0,152.49 -123.59,276.1 -276.08,276.1 -152.51,0 -276.14,-123.61 -276.14,-276.1 0,-152.5 123.63,-276.14 276.14,-276.14 152.49,0 276.08,123.64 276.08,276.14z"/>
  <path class="fil3" d="M5802.33 7463.99c-122.77,0 -222.64,99.83 -222.64,222.6 0,122.73 99.87,222.59 222.64,222.59 122.72,0 222.59,-99.86 222.59,-222.59 0,-122.77 -99.87,-222.6 -222.59,-222.6zm0 552.23c-181.78,0 -329.64,-147.87 -329.64,-329.63 0,-181.76 147.86,-329.63 329.64,-329.63 181.76,0 329.62,147.87 329.62,329.63 0,181.76 -147.86,329.63 -329.62,329.63z"/>
  <path class="fil3" d="M5019.81 8535.04c-29.54,0 -53.5,-23.93 -53.5,-53.51l0 -650.33 -349.72 -263.26 0 -676.34c0,-29.53 23.97,-53.5 53.54,-53.5 29.54,0 53.51,23.97 53.51,53.5l0 622.95 349.71 263.23 0 703.75c0,29.58 -23.97,53.51 -53.54,53.51z"/>
  <path class="fil0" d="M5217.14 8992.74c309.32,0 606.76,-114.77 839.07,-319.01 321.8,-282.88 863.51,-620.24 1461.44,-403.85 239.93,86.81 403.41,245.98 514.96,422.17 287.22,-665.63 889.88,-705.56 1150.73,-328.26 0,0 -438.38,2091.71 -581.27,2138.28 -204.8,66.67 -696.62,-3.47 -696.62,-3.47 0,0 -1711.17,-231.65 -2688.31,-231.65 -977.17,0 -2688.35,231.65 -2688.35,231.65 0,0 -491.86,70.14 -696.53,3.47 -142.89,-46.57 -581.33,-2138.28 -581.33,-2138.28 260.8,-377.3 863.48,-337.37 1150.74,328.26 111.52,-176.19 275.03,-335.36 514.93,-422.17 597.92,-216.39 1139.68,120.97 1461.47,403.85 232.28,204.24 529.72,319.01 839.07,319.01z"/>
  <path class="fil2" d="M8341.97 10459.38c-132.4,0 -278.33,-13.14 -372.62,-24.39 3.18,-18.99 4.82,-38.44 4.82,-58.29 0,-109.71 -76.21,-201.96 -178.5,-226.59l75.31 -507.95c22.44,5.93 34.39,9.14 34.39,9.14 0,0 159.65,22.74 334.89,30.04 -8.44,73.55 -14.11,145.33 -16.25,214.05 -0.43,0 -0.86,0 -1.18,0 -30.05,0 -55.72,22.98 -58.5,53.54 -2.89,32.36 20.96,60.96 53.37,63.9l6.09 0.54c4.82,149.76 30.38,277.98 84.49,366.31l0 0c0.11,0.2 0.33,0.43 0.43,0.63 0,0.04 0,0.08 0,0.11 0.11,0.16 0.22,0.32 0.32,0.52 0.11,0.08 0.11,0.16 0.22,0.23 0.1,0.16 0.1,0.28 0.21,0.44 0.11,0.12 0.11,0.23 0.21,0.31 0.11,0.12 0.11,0.19 0.22,0.31 0,0.16 0.1,0.32 0.21,0.47 0.11,0.04 0.11,0.12 0.22,0.19 0.1,0.21 0.21,0.4 0.32,0.59 0,0 0,0 0,0.04 19.14,30.29 41.6,55.67 68.02,75.51 -12.09,0.24 -24.28,0.35 -36.69,0.35zm-6249.65 0c-12.39,0 -24.64,-0.11 -36.71,-0.35 28.74,-21.61 52.95,-49.85 73.06,-83.82 0.05,-0.04 0.05,-0.07 0.09,-0.11 0.07,-0.16 0.19,-0.36 0.31,-0.56 0.04,-0.03 0.07,-0.15 0.12,-0.19 0.07,-0.12 0.19,-0.31 0.23,-0.43 0.08,-0.12 0.16,-0.24 0.24,-0.35 0.07,-0.12 0.07,-0.16 0.16,-0.28 0.11,-0.16 0.19,-0.31 0.27,-0.51 0.04,-0.04 0.04,-0.04 0.08,-0.12 0.12,-0.19 0.24,-0.39 0.35,-0.62l0.04 -0.04c50.99,-87.98 75.19,-213.14 79.9,-358.63l6.16 -0.54c32.35,-2.94 56.2,-31.54 53.3,-63.9 -2.75,-30.59 -28.39,-53.54 -58.55,-53.54 -0.37,0 -0.71,0 -1.07,0 -2.19,-68.72 -7.8,-140.5 -16.24,-214.05 175.17,-7.3 334.7,-30.04 334.7,-30.04 0,0 19.72,-5.33 56.17,-14.87l76.13 513.68c-102.26,24.63 -178.47,116.88 -178.47,226.59 0,18.91 1.5,37.45 4.35,55.54 -92.41,11.76 -251.46,27.14 -394.62,27.14z"/>
  <path class="fil1" d="M1869.92 10442.87l0 0zm226.12 159.1c-107.31,0 -212.15,-8.04 -285.89,-32.06 -50.29,-16.39 -92.58,-72.12 -171.92,-319.31 -46.45,-144.69 -102.18,-346.16 -165.6,-598.87 -114.23,-454.91 -225.57,-965.14 -268.13,-1163.37 -22.28,-103.79 11.74,-211.1 88.78,-280.1 147.97,-132.45 346.24,-183.45 544.04,-139.91 124.66,27.41 245.93,92.49 350.74,188.2 86.77,79.27 162.23,178.26 225.14,295.31 127.72,-162.9 288.41,-280.09 479.17,-349.09 216.08,-78.21 442.16,-93.7 672.01,-46.16 185.57,38.43 374.27,118.14 560.82,236.91 33.22,21.13 43.03,65.26 21.85,98.49 -21.14,33.26 -65.27,43.03 -98.49,21.88 -383.97,-244.44 -756.63,-303.94 -1107.68,-176.89 -197.96,71.58 -359.09,203.89 -478.92,393.21 -14.16,22.32 -39.58,35.03 -65.9,32.95 -26.35,-2.08 -49.41,-18.56 -59.93,-42.87 -120.02,-278.1 -313,-464.96 -529.48,-512.57 -152.42,-33.54 -304.85,5.41 -418.16,106.88 -38.98,34.87 -56.01,89.98 -44.45,143.83 40.17,187.06 145.45,669.86 255.08,1110.93 60.28,242.45 113.7,439.66 158.81,586.2 63.16,205.14 96.14,265.34 107.87,282.13 161.25,45.15 523.79,8.68 652.96,-9.73l0.46 -0.03c17.19,-2.32 1727.18,-232.33 2697.92,-232.33 970.7,0 2680.75,230.01 2697.88,232.33l0.51 0.07c129.12,18.37 491.68,54.84 652.96,9.69 11.44,-16.47 43.53,-74.91 104.6,-271.73 44.06,-141.92 96.15,-333.13 154.97,-568.4 104.91,-419.54 205.45,-875.94 256.03,-1110.65 16.58,-76.92 -12.19,-155.76 -73.36,-200.86 -116.79,-86.14 -261.49,-111.83 -407.48,-72.33 -209.19,56.52 -388.55,236.43 -505.12,506.57 -10.48,24.31 -33.55,40.79 -59.95,42.87 -26.35,2.08 -51.73,-10.63 -65.84,-32.95 -119.84,-189.32 -281.01,-321.63 -478.97,-393.21 -354.07,-128.15 -729.95,-66.57 -1117.21,183.01 -33.14,21.34 -77.27,11.81 -98.65,-21.34 -21.32,-33.1 -11.79,-77.27 21.35,-98.6 187.68,-120.96 377.6,-202.4 564.47,-242.05 232.12,-49.27 460.43,-34.2 678.6,44.79 190.74,68.96 351.44,186.15 479.15,349.09 134.05,-249.1 324.42,-416.35 544.95,-475.98 185.99,-50.33 379.03,-15.61 529.4,95.24 106.2,78.36 156.57,214.11 128.12,345.79 -53.58,248.68 -159.78,730.46 -268.97,1162.98 -62.03,245.27 -116.36,440.64 -161.82,580.75 -77.43,238.99 -118.92,293.04 -168.65,309.23 -217,70.69 -703.59,2.91 -728.43,-0.58 -26.82,-3.65 -1720.26,-231.04 -2678.54,-231.04 -958.42,0 -2651.75,227.39 -2678.57,231.04 -16.37,2.31 -234.05,32.64 -442.53,32.64z"/>
  <path class="fil5" d="M8474.91 10502.07l127.16 0c149.2,0 284.49,-87.52 345.23,-223.78 190.16,-426 537.1,-1362.03 212.19,-1933.29 -9.52,-16.68 -19.57,-32.72 -30.26,-48.1 0,0 -311.97,-283.7 -536.03,117.68 -209.3,374.86 -648.64,1978 -118.29,2087.49z"/>
  <path class="fil0" d="M8478.44 8681.73c40.85,-113.63 80.75,-206.43 114.76,-267.15 -33.8,60.64 -73.8,153.48 -114.65,266.91 0,0.09 0,0.16 -0.11,0.24z"/>
  <path class="fil6" d="M9244.95 8550.73c-5.35,-18.56 -11.13,-36.84 -17.44,-54.92l0 -0.04c6.31,18.09 12.09,36.4 17.44,54.96z"/>
  <path class="fil7" d="M9227.51 8495.81c-18.29,-52.48 -40.85,-102.92 -68.02,-150.81 27.27,47.85 49.73,98.29 68.02,150.77l0 0.04z"/>
  <path class="fil8" d="M9284.62 8761.23c-23.95,-61.07 -54.75,-119.4 -93.26,-174.38 -11.55,-16.67 -24.06,-32.67 -37.21,-48.09 0,0 -131.55,-97.32 -295.93,-97.32 -116.26,0 -248.98,48.72 -363.1,214.99 -5.34,7.77 -11.01,16.16 -16.57,25.06 40.85,-113.43 80.85,-206.27 114.65,-266.91l0 0c92.83,-166.31 200.74,-214.98 295.28,-214.98 133.69,0 240.75,97.3 240.75,97.3 10.69,15.38 20.74,31.42 30.26,48.1l0 0c27.17,47.89 49.73,98.33 68.02,150.81 6.31,18.08 12.09,36.36 17.44,54.92 19.25,67.58 32.19,138.1 39.67,210.5z"/>
  <path class="fil1" d="M9282.91 8804.07c-3.21,0 -6.41,-0.27 -9.73,-0.83l-779.55 -130.14c-32.09,-5.33 -53.69,-35.65 -48.34,-67.7 5.34,-32.09 35.61,-53.69 67.69,-48.37l779.66 130.15c31.98,5.38 53.59,35.7 48.24,67.74 -4.71,28.75 -29.73,49.15 -57.97,49.15z"/>
  <path class="fil1" d="M9277.99 9225.3c-2.56,0 -5.24,-0.21 -7.91,-0.56l-911.96 -122.61c-32.19,-4.32 -54.86,-33.93 -50.48,-66.13 4.28,-32.21 33.9,-54.84 66.1,-50.48l912.06 122.61c32.19,4.31 54.76,33.93 50.48,66.13 -4.06,29.57 -29.3,51.04 -58.29,51.04z"/>
  <path class="fil1" d="M9197.57 9637.84c-2.36,0 -4.82,-0.15 -7.28,-0.43l-925.75 -113.31c-32.3,-3.97 -55.18,-33.3 -51.23,-65.55 3.96,-32.28 33.26,-55.26 65.56,-51.26l925.76 113.31c32.19,3.96 55.18,33.31 51.22,65.55 -3.63,29.81 -28.98,51.69 -58.28,51.69z"/>
  <path class="fil1" d="M9050.72 10087.74c-1.81,0 -3.63,-0.08 -5.34,-0.24l-827.68 -74.67c-32.41,-2.94 -56.26,-31.54 -53.37,-63.9 2.89,-32.36 31.55,-56.25 63.85,-53.31l827.79 74.68c32.29,2.94 56.14,31.54 53.26,63.9 -2.78,30.55 -28.45,53.54 -58.51,53.54z"/>
  <path class="fil9" d="M8310.64 10383.52c0,-0.04 0,-0.04 0,-0.04l0 0.04zm-0.32 -0.63c-0.11,-0.07 -0.11,-0.15 -0.22,-0.19 0.11,0.08 0.11,0.08 0.22,0.19zm-0.43 -0.66c-0.11,-0.12 -0.11,-0.19 -0.22,-0.31 0.11,0.12 0.11,0.24 0.22,0.31zm-0.43 -0.62c-0.11,-0.16 -0.11,-0.28 -0.21,-0.44 0.1,0.16 0.1,0.28 0.21,0.44zm-0.43 -0.67c-0.1,-0.2 -0.21,-0.36 -0.32,-0.52 0.11,0.16 0.22,0.36 0.32,0.52zm-0.32 -0.63c-0.1,-0.2 -0.32,-0.43 -0.43,-0.63 0.11,0.24 0.22,0.4 0.43,0.63zm-0.43 -0.63c-54.11,-88.33 -79.67,-216.55 -84.49,-366.31l0 0c4.92,149.8 30.38,277.98 84.49,366.31z"/>
  <path class="fil10" d="M8602.07 10502.07l-127.16 0 0 0c-71.33,-14.76 -125.13,-56.45 -164.27,-118.55l0 -0.04c-0.11,-0.19 -0.22,-0.43 -0.32,-0.59 -0.11,-0.11 -0.11,-0.11 -0.22,-0.19 -0.11,-0.15 -0.21,-0.31 -0.21,-0.47 -0.11,-0.07 -0.11,-0.19 -0.22,-0.31 -0.1,-0.12 -0.1,-0.19 -0.21,-0.31 -0.11,-0.16 -0.11,-0.28 -0.21,-0.44 -0.11,-0.07 -0.11,-0.15 -0.22,-0.23 -0.1,-0.16 -0.21,-0.36 -0.32,-0.52 0,-0.03 0,-0.07 0,-0.11 -0.21,-0.23 -0.32,-0.39 -0.43,-0.63l0 0c-54.11,-88.33 -79.57,-216.51 -84.49,-366.31l240.53 21.69c28.24,14.87 59.79,25.57 94.87,31.7l151.44 0c21.39,0 42.56,-1.3 63.31,-3.73l254.43 22.94c-28.45,71.59 -56.15,136.31 -81.07,192.32l0 0c-60.74,136.26 -196.03,223.78 -345.23,223.78zm469.51 -528.19c-4.92,-1.84 -10.16,-3.06 -15.61,-3.58l-40 -3.6c38.82,-30.05 71.65,-66.05 96.25,-106.89 -13.47,39.19 -27.06,77.31 -40.64,114.07zm-735.7 -68.53l-107.7 -9.73c-1.39,-0.12 -2.78,-0.19 -4.17,-0.23 3.53,-111.95 16.25,-232.21 35.29,-354.54 1.71,144.46 24.49,271.07 76.58,364.5z"/>
  <path class="fil1" d="M9028.37 10085.97l-254.43 -22.94c91.23,-10.87 175.5,-44.88 242.03,-96.33l40 3.6c5.45,0.52 10.69,1.74 15.61,3.58 -14.44,38.9 -28.88,76.36 -43.21,112.09zm-564.05 -50.91l-240.53 -21.69 0 0c-1.17,-38.04 -1.07,-77.46 0.22,-117.98 1.39,0.04 2.78,0.11 4.17,0.23l107.7 9.73c31.55,56.53 73.68,100.92 128.44,129.71z"/>
  <path class="fil1" d="M8481.33 10443.22l120.74 0c125.88,0 240.32,-74.12 291.44,-188.86 97.11,-217.53 227.16,-550.11 295.29,-899.52 80.85,-414.79 53.79,-744.77 -80.43,-980.74 -7.38,-12.87 -15.19,-25.42 -23.31,-37.41 -22.04,-18.01 -122.14,-93.59 -230.69,-75.48 -79.15,13.22 -149.73,74.45 -209.84,182.04 -79.14,141.75 -207.16,504.06 -288.76,896.26 -92.94,447.58 -98.82,793.22 -16.47,973.26 33.47,73.07 79.89,115.82 142.03,130.45zm120.74 117.68l-127.16 0c-3.96,0 -8.02,-0.4 -11.87,-1.22 -102.67,-21.18 -180.42,-87.83 -230.8,-198.01 -118.82,-259.73 -60.96,-712.26 8.35,-1046.13 84.81,-408 215.71,-776.5 301.27,-929.68 78.61,-140.81 177.64,-221.84 294.22,-240.9 178.92,-29.19 326.51,102.8 332.72,108.45 3.21,2.94 6.09,6.23 8.66,9.85 11.66,16.78 22.89,34.51 33.15,52.71 148.56,261.07 180,618.2 93.69,1061.39 -70.16,360.31 -203.74,701.87 -303.31,924.94 -70.05,157.08 -226.62,258.6 -398.92,258.6z"/>
  <path class="fil5" d="M1959.35 10502.07l-127.09 0c-149.24,0 -284.52,-87.52 -345.24,-223.78 -190.27,-426 -537.12,-1362.03 -212.23,-1933.29 9.46,-16.68 19.56,-32.72 30.29,-48.1 0,0 311.93,-283.7 535.98,117.68 209.33,374.86 648.67,1978 118.29,2087.49z"/>
  <path class="fil0" d="M1955.82 8681.73c-0.04,-0.08 -0.13,-0.15 -0.16,-0.27 -40.83,-113.44 -80.72,-206.24 -114.6,-266.88 33.99,60.72 73.89,153.52 114.76,267.15z"/>
  <path class="fil6" d="M1188.55 8553.62c5.41,-19.1 11.33,-38.01 17.79,-56.63 0,0 0.01,0 0.01,0 -6.46,18.62 -12.39,37.53 -17.8,56.63z"/>
  <path class="fil7" d="M1206.35 8496.99c0,0 -0.01,0 -0.01,0 18.35,-52.96 41,-103.79 68.45,-151.99 -27.44,48.24 -50.07,99.08 -68.44,151.99z"/>
  <path class="fil8" d="M1149.61 8761.23c7.4,-71.39 20.06,-140.92 38.94,-207.61 5.41,-19.1 11.34,-38.01 17.8,-56.63 18.37,-52.91 41,-103.75 68.44,-151.99l0 0c9.46,-16.68 19.56,-32.72 30.29,-48.1 0,0 107.02,-97.3 240.7,-97.3 94.56,0 202.46,48.67 295.28,214.98l0 0c33.88,60.64 73.77,153.44 114.6,266.88 -5.57,-8.87 -11.1,-17.26 -16.51,-25.03 -114.14,-166.27 -246.84,-214.99 -363.09,-214.99 -164.43,0 -295.98,97.32 -295.98,97.32 -13.14,15.42 -25.64,31.42 -37.18,48.09 -38.47,54.98 -69.24,113.31 -93.29,174.38z"/>
  <path class="fil1" d="M1151.31 8804.07c-28.24,0 -53.16,-20.4 -57.97,-49.15 -5.35,-32.04 16.3,-62.36 48.35,-67.74l779.61 -130.15c32.05,-5.32 62.37,16.28 67.71,48.37 5.37,32.05 -16.29,62.37 -48.33,67.7l-779.62 130.14c-3.27,0.56 -6.53,0.83 -9.75,0.83z"/>
  <path class="fil1" d="M1156.27 9225.3c-29,0 -54.27,-21.47 -58.23,-51.04 -4.33,-32.2 18.26,-61.82 50.47,-66.13l911.99 -122.61c32.25,-4.36 61.82,18.27 66.14,50.48 4.36,32.2 -18.24,61.81 -50.45,66.13l-912.01 122.61c-2.66,0.35 -5.3,0.56 -7.91,0.56z"/>
  <path class="fil1" d="M1236.74 9637.84c-29.32,0 -54.67,-21.88 -58.33,-51.69 -3.95,-32.24 18.99,-61.59 51.25,-65.55l925.76 -113.31c32.25,-3.92 61.63,18.98 65.55,51.26 3.96,32.25 -18.98,61.58 -51.23,65.55l-925.78 113.31c-2.43,0.28 -4.85,0.43 -7.22,0.43z"/>
  <path class="fil1" d="M1383.55 10087.74c-30.09,0 -55.78,-22.99 -58.52,-53.54 -2.91,-32.36 20.95,-60.96 53.3,-63.9l827.7 -74.68c32.4,-2.9 60.95,20.95 63.89,53.31 2.9,32.36 -20.95,60.96 -53.3,63.9l-827.7 74.67c-1.81,0.16 -3.61,0.24 -5.37,0.24z"/>
  <path class="fil9" d="M2128.67 10375.21c0.05,-0.04 0.05,-0.07 0.09,-0.11 -0.04,0.04 -0.04,0.07 -0.09,0.11zm0.4 -0.67c0.04,-0.07 0.07,-0.11 0.12,-0.19 -0.05,0.04 -0.08,0.16 -0.12,0.19zm0.35 -0.62c0.08,-0.12 0.16,-0.24 0.24,-0.35 -0.08,0.11 -0.16,0.23 -0.24,0.35zm0.4 -0.63c0.07,-0.16 0.19,-0.35 0.27,-0.51 -0.08,0.2 -0.16,0.35 -0.27,0.51zm0.35 -0.63c0.12,-0.19 0.24,-0.39 0.35,-0.62 -0.11,0.23 -0.23,0.43 -0.35,0.62zm0.39 -0.66c50.99,-87.98 75.15,-213.11 79.9,-358.63l0 0c-4.71,145.49 -28.91,270.65 -79.9,358.63z"/>
  <path class="fil10" d="M1959.35 10502.07l-127.09 0c-149.24,0 -284.52,-87.52 -345.24,-223.78l0 0c-24.99,-56.01 -52.64,-120.73 -81.15,-192.32l254.47 -22.94c20.75,2.43 41.9,3.73 63.23,3.73l151.48 0c35.12,-6.13 66.69,-16.83 94.93,-31.7l240.48 -21.69c-4.75,145.52 -28.91,270.65 -79.9,358.63 0,0.04 0,0.04 -0.04,0.04 -0.11,0.23 -0.23,0.43 -0.35,0.62 0,0.04 -0.04,0.12 -0.08,0.12 -0.08,0.16 -0.2,0.35 -0.27,0.51 -0.04,0.07 -0.12,0.19 -0.16,0.28 -0.08,0.11 -0.16,0.23 -0.24,0.35 -0.07,0.15 -0.16,0.27 -0.23,0.43 -0.05,0.08 -0.08,0.12 -0.12,0.19 -0.12,0.2 -0.19,0.35 -0.31,0.56 -0.04,0.04 -0.04,0.07 -0.09,0.11 -39.53,66.68 -94.87,111.48 -169.32,126.86l0 0zm-596.62 -528.19c-13.62,-36.76 -27.28,-74.88 -40.65,-114.07 24.6,40.84 57.39,76.84 96.22,106.89l-39.97 3.6c-5.46,0.52 -10.71,1.74 -15.6,3.58zm735.67 -68.53c52.01,-93.43 74.87,-220.04 76.52,-364.5 19.1,122.33 31.82,242.59 35.38,354.54 -1.41,0.04 -2.86,0.11 -4.27,0.23l-107.63 9.73z"/>
  <path class="fil1" d="M1405.87 10085.97c-14.25,-35.73 -28.72,-73.19 -43.14,-112.09 4.89,-1.84 10.14,-3.06 15.6,-3.58l39.97 -3.6c66.48,51.45 150.74,85.46 242.04,96.33l-254.47 22.94zm564.11 -50.91c54.72,-28.79 96.92,-73.15 128.42,-129.71l107.63 -9.73c1.41,-0.12 2.86,-0.19 4.27,-0.23 1.29,40.52 1.38,79.94 0.16,117.98l0 0 -240.48 21.69z"/>
  <path class="fil1" d="M1349.14 8336.69c-8.11,11.99 -15.88,24.51 -23.17,37.33 -134.25,236.05 -161.32,566.03 -80.49,980.82 68.07,349.41 198.12,681.99 295.23,899.48 51.19,114.78 165.6,188.9 291.55,188.9l120.7 0c62.09,-14.63 108.56,-57.38 142.02,-130.45 82.33,-180.04 76.48,-525.68 -16.55,-973.26 -81.46,-392.2 -209.57,-754.51 -288.72,-896.26 -60.1,-107.59 -130.66,-168.82 -209.81,-182.04 -108.38,-18.04 -208.44,57.27 -230.76,75.48zm610.21 2224.21l-127.09 0c-172.34,0 -328.93,-101.52 -398.98,-258.65 -99.62,-223.02 -233.11,-564.58 -303.31,-924.89 -86.35,-443.19 -54.83,-800.32 93.68,-1061.43 10.31,-18.16 21.48,-35.93 33.2,-52.67 2.5,-3.62 5.41,-6.91 8.65,-9.85 6.19,-5.65 153.69,-137.64 332.64,-108.45 116.65,19.06 215.69,100.09 294.29,240.9 85.51,153.18 216.44,521.68 301.24,929.68 69.35,333.87 127.13,786.4 8.32,1046.13 -50.41,110.18 -128.03,176.83 -230.76,198.01 -3.92,0.82 -7.88,1.22 -11.88,1.22z"/>
  <path class="fil3" d="M3393.92 10448.36c-8.36,0 -16.83,-1.96 -24.75,-6.11 -26.21,-13.73 -36.33,-46.05 -22.6,-72.26 223.46,-426.95 226.75,-907.09 9.81,-1427.11 -163.65,-392.2 -397.96,-660.57 -400.33,-663.23 -19.52,-22.17 -17.41,-55.98 4.75,-75.5 22.16,-19.58 55.94,-17.46 75.51,4.7 10,11.29 246.87,282.13 417.57,689.82 100.73,240.56 156.9,478.61 167.02,707.56 12.71,287.86 -47.7,561.52 -179.52,813.42 -9.54,18.25 -28.17,28.71 -47.46,28.71z"/>
  <path class="fil3" d="M7062.07 10448.36c-19.26,0 -37.89,-10.46 -47.46,-28.71 -131.83,-251.9 -192.24,-525.56 -179.53,-813.42 10.12,-228.95 66.33,-467 167.05,-707.56 170.71,-407.69 407.58,-678.53 417.58,-689.82 19.57,-22.16 53.39,-24.28 75.5,-4.7 22.16,19.52 24.28,53.33 4.75,75.5l0 0c-2.35,2.66 -236.68,271.03 -400.32,663.23 -216.95,520.02 -213.64,1000.16 9.81,1427.11 13.69,26.21 3.57,58.53 -22.59,72.26 -7.93,4.15 -16.44,6.11 -24.79,6.11z"/>
  <path class="fil2" d="M6796.2 5507.68l0 0c-22.78,-61 -46.27,-122.34 -70.43,-184 38.11,-25.69 75.58,-52.33 112.37,-79.9 33.85,36.16 68.71,75.11 104.37,116.65 -47.14,51.23 -95.98,100.37 -146.31,147.25z"/>
  <path class="fil1 str0" d="M6942.51 5360.43c-35.66,-41.54 -70.52,-80.49 -104.37,-116.65 19.1,-14.31 37.97,-28.87 56.71,-43.7 31.54,33.86 63.44,69.59 95.64,106.89 -15.82,18.08 -31.78,35.89 -47.98,53.46z"/>
  <path class="fil2" d="M3639.42 5503.75c-67.39,-63.23 -132.03,-130.26 -193.73,-200.9 33.45,-10.55 67.7,-21.77 102.61,-33.62 46.83,34.01 94.65,66.5 143.44,97.4 -17.81,45.9 -35.27,91.58 -52.32,137.12l0 0z"/>
  <path class="fil1 str0" d="M3445.69 5302.85c-16.98,-19.45 -33.78,-39.18 -50.29,-59.19 27.85,-8.63 55.66,-17.49 83.36,-26.58 22.94,17.76 46.08,35.13 69.54,52.15 -34.91,11.85 -69.16,23.07 -102.61,33.62z"/>
  <path class="fil2" d="M5219.85 6153.11c-359.29,0 -701.24,-87.99 -1011.54,-246.73 -204.98,-105.07 -396.03,-240.82 -568.89,-402.63l0 0c17.05,-45.54 34.51,-91.22 52.32,-137.12 156.27,99.12 322.26,182.28 496.76,248.79 315.37,120.15 646.02,180.86 984.56,180.86 34.16,0 68.45,-0.62 102.72,-1.88 374.36,-13.49 734.86,-99.9 1071.56,-256.87 132.25,-61.66 258.56,-133.05 378.43,-213.85 24.16,61.66 47.65,123 70.43,184l0 0c-160.54,149.48 -336.45,276.69 -524.65,377.44 -317.86,170.54 -670.57,266.18 -1041.97,267.99 -3.22,0 -6.51,0 -9.73,0z"/>
  <path class="fil0" d="M7865.29 3584.27c-30.2,3.25 -57.3,-18.59 -60.57,-48.8l-169.24 -1575.07c-3.26,-30.16 18.58,-57.22 48.79,-60.54l0 0c316.81,-34 601.23,195.29 635.35,512.08l57.65 537.02c34.01,316.82 -195.19,601.26 -511.98,635.31z"/>
  <path class="fil3" d="M7746.36 1910.13c-20.04,0 -40.28,1.07 -60.64,3.21 -10.98,1.18 -20.86,6.63 -27.81,15.29 -6.98,8.56 -10.11,19.36 -8.95,30.38l169.26 1575.02c1.18,10.98 6.55,20.86 15.18,27.8 8.63,6.95 19.42,10.12 30.44,8.94 149.64,-16.07 284.02,-89.46 378.46,-206.62 94.43,-117.16 137.53,-264.1 121.49,-413.73l-57.75 -537.09c-30.91,-288.44 -275.81,-503.2 -559.68,-503.2zm112.93 1688.02c-15.61,0 -30.6,-5.29 -42.91,-15.17 -14.24,-11.5 -23.18,-27.85 -25.14,-46.06l-169.26 -1575.03c-1.91,-18.18 3.31,-36.04 14.79,-50.26 11.5,-14.33 27.85,-23.21 46.05,-25.24 323.79,-34.76 615.41,200.31 650.17,524.05l57.75 537.11c16.9,156.82 -28.34,310.8 -127.38,433.62 -98.92,122.8 -239.81,199.72 -396.62,216.6l-1.45 -13.5 1.45 13.5c-2.51,0.22 -4.98,0.38 -7.45,0.38z"/>
  <path class="fil2" d="M7909.61 3500.84c21.85,-125.28 35.02,-252.28 39.38,-380.47 147.75,-42.56 269.03,-141.79 341.75,-270.52l11.45 107.2c14.33,133.16 -24.07,263.97 -108.13,368.27 -72.83,90.4 -172.46,151.52 -284.45,175.52z"/>
  <path class="fil1" d="M7712.75 1973.12l164.77 1533.53c125.01,-18.52 236.76,-82.37 316.54,-181.33 84.06,-104.3 122.46,-235.11 108.13,-368.27l-57.65 -537.09c-28.87,-268.12 -265.11,-464.7 -531.79,-446.84zm144.5 1536.12l-0.05 0 0.05 0zm1.92 150.8c-29.66,0 -58.21,-10 -81.62,-28.86 -27.15,-21.88 -44.13,-52.99 -47.86,-87.67l-169.25 -1574.98c-3.72,-34.66 6.28,-68.67 28.13,-95.83 21.88,-27.06 52.98,-44.17 87.67,-47.81 357.59,-38.39 679.96,221.28 718.35,578.92l57.75 537.12c18.61,173.25 -31.33,343.4 -140.74,479.07 -109.3,135.72 -264.98,220.68 -438.27,239.31 -4.75,0.51 -9.45,0.73 -14.16,0.73z"/>
  <path class="fil0" d="M2485.57 2458.57c30.21,-3.32 57.31,18.61 60.56,48.77l169.26 1575.03c3.25,30.21 -18.6,57.3 -48.8,60.56 -316.81,34.04 -601.26,-195.21 -635.3,-512.03l-57.7 -537.04c-34.04,-316.81 195.17,-601.28 511.98,-635.29z"/>
  <path class="fil3" d="M2491.49 2471.83c-1.49,0 -2.97,0.11 -4.46,0.21 -308.89,33.16 -533.18,311.48 -499.95,620.36l57.69 537.06c33.19,308.88 311.45,533.16 620.37,499.97 22.71,-2.42 39.18,-22.89 36.75,-45.61l-169.25 -1574.99c-2.28,-21.28 -20.28,-37 -41.15,-37zm113.01 1687.97c-297.58,0.04 -554.19,-225.02 -586.67,-527.44l-57.74 -537.05c-34.79,-323.76 200.28,-615.46 524.03,-650.22l1.45 13.48 -1.45 -13.48c37.58,-4.06 71.43,23.21 75.51,60.86l169.21 1574.97c4.03,37.57 -23.22,71.42 -60.84,75.47 -21.3,2.31 -42.52,3.41 -63.5,3.41z"/>
  <path class="fil2" d="M2604.53 4070.81c-252.67,-0.05 -470.59,-191.14 -498.21,-447.95l-11.17 -104.21c100.44,100.84 237.44,163.99 386.38,169.71 32.09,130.15 73.67,257.78 124.62,382.45 -0.52,0 -1.06,0 -1.62,0z"/>
  <path class="fil1" d="M2473.33 2536.21c-264.4,39.25 -453.54,281.44 -424.71,549.57l57.7 537.08c28.82,268.1 265.11,464.65 531.8,446.8l-164.79 -1533.45zm131.13 1685.52c-328.77,0.04 -612.29,-248.63 -648.21,-582.74l-57.7 -537.09c-38.44,-357.68 221.26,-679.91 578.95,-718.41 71.49,-7.6 135.99,44.28 143.66,115.82l169.25 1574.98c7.7,71.54 -44.23,135.99 -115.78,143.68 -23.53,2.51 -47.03,3.76 -70.17,3.76z"/>
  <path class="fil0" d="M7873.36 2924.06c53.79,1489.87 -1110.41,2741.17 -2600.28,2794.95 -1489.87,53.74 -2741.19,-1110.45 -2794.96,-2600.32 -53.74,-1489.84 1110.46,-2741.14 2600.33,-2794.94 1489.83,-53.79 2741.18,1110.46 2794.91,2600.31z"/>
  <path class="fil3" d="M5177.01 335.52c-32.63,0 -65.22,0.64 -98.09,1.82 -1479.98,53.36 -2640.62,1300.82 -2587.23,2780.88 25.85,716.92 329.36,1380.89 854.61,1869.55 500.92,466.06 1146.42,719.48 1827.04,719.48 33.02,0 66.08,-0.59 99.23,-1.8 716.96,-25.85 1380.91,-329.36 1869.59,-854.61 488.64,-525.25 743.52,-1209.34 717.67,-1926.32 -52.2,-1447.1 -1246.28,-2589 -2682.82,-2589zm-3.91 5398.83c-330.98,0 -654.29,-59.34 -962.55,-176.78 -327.75,-124.93 -624.76,-309.94 -882.73,-549.95 -257.97,-240.01 -463.89,-522.89 -612.12,-840.81 -153.41,-329.15 -237.93,-681.62 -251.11,-1047.62 -13.22,-365.99 45.66,-723.72 174.97,-1062.97 124.94,-327.8 309.95,-624.79 549.96,-882.75 240.01,-257.97 522.89,-463.95 840.8,-612.18 329.16,-153.37 681.63,-237.86 1047.62,-251.12 366,-13.15 723.64,45.67 1063,175.08 327.79,124.81 624.79,309.83 882.72,549.93 257.98,239.99 463.95,522.87 612.13,840.73 153.45,329.19 237.93,681.69 251.15,1047.67 13.18,366 -45.69,723.64 -175.02,1063 -124.88,327.76 -309.9,624.76 -549.92,882.74 -240,257.97 -522.88,463.89 -840.83,612.08 -329.13,153.44 -681.63,237.93 -1047.62,251.15 -33.54,1.21 -67.04,1.8 -100.45,1.8z"/>
  <path class="fil2" d="M5173.41 5645.35c-589.57,-0.04 -1152.12,-194.62 -1613.23,-556.11 90.37,44.76 186.74,87.19 286.3,125.6 296.53,114.33 743.24,242.36 1256.88,242.36 59.89,0 120.77,-1.72 182.35,-5.46 634.09,-38.16 1142.9,-234.47 1458.06,-392.43 79.97,-40.08 156.89,-82.48 229.5,-126.22 -462.92,436.52 -1061.19,687.36 -1702.9,710.5 -32.44,1.18 -64.71,1.76 -96.96,1.76z"/>
  <path class="fil1" d="M5176.98 397.44c-31.89,0 -63.7,0.54 -95.82,1.71 -1445.9,52.19 -2579.78,1270.88 -2527.61,2716.83 25.26,700.41 321.79,1349.05 834.91,1826.48 489.4,455.32 1120.04,702.85 1784.95,702.89 32.25,0 64.52,-0.58 96.96,-1.76 700.42,-25.26 1349.06,-321.79 1826.45,-834.91 477.39,-513.16 726.42,-1181.5 701.17,-1881.92 -51.04,-1413.73 -1217.55,-2529.32 -2621.01,-2529.32zm-3.92 5398.84c-338.54,0 -669.19,-60.71 -984.56,-180.86 -335.24,-127.78 -639.03,-317 -902.85,-562.46 -263.81,-245.47 -474.44,-534.82 -626.04,-859.98 -156.98,-336.74 -243.38,-697.24 -256.88,-1071.55 -13.53,-374.35 46.72,-740.19 178.98,-1087.24 127.75,-335.28 317.01,-639.13 562.47,-902.86 245.46,-263.85 534.81,-474.54 859.98,-626.08 336.69,-157 697.23,-243.42 1071.54,-256.89 374.36,-13.48 740.15,46.73 1087.28,179.03 335.28,127.7 639.03,317 902.85,562.44 263.86,245.45 474.49,534.75 626.08,859.98 156.94,336.68 243.39,697.2 256.89,1071.54 13.49,374.31 -46.72,740.11 -179.02,1087.27 -127.75,335.25 -317,639.05 -562.46,902.86 -245.43,263.82 -534.78,474.45 -859.98,626.05 -336.7,156.97 -697.2,243.38 -1071.56,256.87 -34.27,1.26 -68.56,1.88 -102.72,1.88z"/>
  <path class="fil11" d="M7867.25 2993.63c27.02,527.57 -119.17,1026.1 -391.26,1446.3 -204,315.05 -1079.39,892.97 -2193.42,960.08 -1032.91,62.2 -2001.42,-440.64 -2236.53,-733.21 -313.64,-390.19 -509.94,-871.2 -536.97,-1398.76 -71.47,-1395.98 1098.29,-2036.18 2577.97,-2111.9 1479.67,-75.83 2708.7,441.49 2780.21,1837.49z"/>
  <path class="fil1" d="M5362.79 1200.74c-89.32,0 -180.32,2.35 -273.08,7.16 -768.28,39.36 -1405.47,229.84 -1842.65,550.9 -488.18,358.49 -719.05,865.32 -686.22,1506.62 25.62,499.55 207.34,972.9 525.6,1368.9 94.72,117.83 360.35,315.21 797.33,483.75 321.53,123.98 824.6,264.56 1395.7,230.17 616.55,-37.15 1111.32,-228.05 1417.86,-381.65 410.71,-205.85 652.68,-427.54 735.13,-554.82 276.13,-426.44 408.58,-915.91 383.01,-1415.46l0 0c-32.82,-641.27 -314.29,-1121.9 -836.52,-1428.63 -411.22,-241.49 -966.04,-366.94 -1616.16,-366.94zm-259.43 4256.46c-513.64,0 -960.35,-128.03 -1256.88,-242.36 -375.49,-144.82 -705.55,-347.18 -840.84,-515.52 -332.03,-413.14 -521.64,-907.13 -548.35,-1428.6 -17.73,-346.04 39.3,-660.07 169.53,-933.22 122.58,-257.21 310.57,-479.99 558.85,-662.34 453.59,-333.04 1110.15,-530.46 1898.7,-570.89 788.59,-40.32 1461.87,88.98 1947.1,374 265.59,155.93 475.39,358.39 623.58,601.7 157.44,258.49 246.28,565.01 263.97,911.04 26.72,521.48 -111.43,1032.25 -399.49,1477.12 -119.7,184.82 -416.95,411.38 -775.76,591.18 -315.16,157.96 -823.97,354.27 -1458.06,392.43 -61.58,3.74 -122.46,5.46 -182.35,5.46z"/>
  <path class="fil12" d="M6958.36 3324.49c-10.79,0 -21.66,-0.7 -32.56,-2.12 -189.6,-24.39 -315.98,-256.32 -282.29,-517.98 31.78,-246.68 194.39,-431.7 371.76,-431.7 10.83,0 21.7,0.75 32.56,2.14 153.25,19.67 265.19,174.97 284.72,371.93 -14.32,117.72 -35.42,233.7 -62.91,347.49 -69.86,139.32 -186.94,230.24 -311.28,230.24z"/>
  <path class="fil12" d="M6597.07 4032.63c-14.36,0 -28.83,-1.88 -43.15,-5.8 -100.21,-27.38 -155.59,-144.27 -123.71,-261.08 27.38,-100.13 109.99,-167.71 196.2,-167.71 14.35,0 28.79,1.88 43.11,5.8 100.25,27.38 155.64,144.27 123.71,261.08 -27.33,100.13 -109.99,167.71 -196.16,167.71z"/>
  <path class="fil13" d="M5103.24 5353.49c-290.49,0 -559.17,-42.36 -789.81,-99.71 1297.17,-147.91 2296.86,-820.35 2540.79,-1197.1 190.43,-294.1 332.26,-618.41 415.42,-962.43 29.81,-59.42 50.99,-127.67 60.49,-201.42 6.47,-50.2 7.06,-99.31 2.42,-146.07 20.87,-171.83 27.31,-347.44 18.16,-525.62 -7.41,-146.31 -25.05,-285.02 -51.93,-416.46 317.91,297.53 491.36,696.77 516.69,1191.63l0 0c25.57,499.55 -106.88,989.02 -383.01,1415.46 -82.45,127.28 -324.42,348.97 -735.13,554.82 -306.54,153.6 -801.31,344.5 -1417.86,381.65 -59.54,3.56 -118.3,5.25 -176.23,5.25z"/>
  <path class="fil1" d="M5105.2 5405.38c-330.85,0 -650.84,-54.48 -937.68,-137.32 49.03,-4 97.71,-8.78 145.91,-14.28 230.64,57.35 499.32,99.71 789.81,99.71 57.93,0 116.69,-1.69 176.23,-5.25 616.55,-37.15 1111.32,-228.05 1417.86,-381.65 410.71,-205.85 652.68,-427.54 735.13,-554.82 276.13,-426.44 408.58,-915.91 383.01,-1415.46l0 0c-25.33,-494.86 -198.78,-894.1 -516.69,-1191.63 -5.96,-29.2 -12.43,-58.18 -19.29,-86.74 343.52,295.83 558.92,714.96 587.72,1275.62 27.03,527.68 -119.24,1026.17 -391.14,1446.37 -204.08,315.05 -1079.55,892.97 -2193.54,960.16 -59.34,3.61 -118.53,5.29 -177.33,5.29z"/>
  <path class="fil12" d="M7269.64 3094.25c27.49,-113.79 48.59,-229.77 62.91,-347.49 4.64,46.76 4.05,95.87 -2.42,146.07 -9.5,73.75 -30.68,142 -60.49,201.42z"/>
  <path class="fil1 str0" d="M2649.88 2139.86c-15.18,0 -30.51,-4.71 -43.57,-14.55 -30.83,-23.2 -37.94,-66.2 -16.95,-97.96 112.02,-184.06 255.07,-352.29 425.14,-499.88 165.6,-143.74 358.2,-269.19 572.39,-372.93 209.77,-101.5 441.54,-182.89 688.97,-241.82 245.18,-58.39 506.96,-94.97 778.03,-108.87 266.65,-13.69 527.92,-4.49 776.55,27.38 250.96,32.08 489.48,87.16 709.05,163.95 224.63,78.5 430.16,179.78 610.87,301.17 185.8,124.81 346.54,271.65 477.78,436.35 22.91,25.35 25.26,64.28 3.81,92.51 -24.25,31.87 -69.79,38.08 -101.71,13.8l-7.61 -5.67 -5.73 -7.27c-485.98,-612.5 -1380.98,-932.28 -2455.55,-877.2 -1080.53,55.3 -1936.74,476.57 -2349.07,1155.7l-1.88 3.1 -2.42 3.31c-14.28,18.93 -36.06,28.88 -58.1,28.88z"/>
  <path class="fil0" d="M3153.28 4067.74c0,0 -502.89,-1355.06 211.21,-1941.89 563.69,-463.2 1347.88,-593.46 1642.66,-593.46 78.64,0 122.41,9.3 117.9,23.95 0,0 -1167.49,346.73 -1582.17,1305 -319.78,738.93 -389.6,1206.4 -389.6,1206.4z"/>
  <path class="fil1" d="M8089.15 8708.16c-1.58,11.93 -3.81,24.64 -6.18,36.92 -2.35,12.43 -5.05,24.71 -7.67,37.1 -5.46,24.63 -11.46,49.15 -17.78,73.63 -12.47,48.95 -27.06,97.47 -40.79,146.3 -13.62,48.84 -27.1,97.79 -40.01,147.12l-9.34 37.12c-3.32,12.39 -6.15,24.82 -9.17,37.29l-4.47 18.76 -2.31 9.41 -2.05 9.41c-2.66,12.59 -5.57,25.22 -8.74,37.97l-0.12 0.44c-1.14,4.58 -5.77,7.36 -10.35,6.22 -3.34,-0.81 -5.74,-3.49 -6.33,-6.66 -5.05,-25.88 -9.57,-52.25 -11.8,-78.53l-2 -19.8c-0.59,-6.63 -0.83,-13.19 -1.25,-19.81 -0.67,-13.14 -1.42,-26.4 -1.77,-39.61 -1.13,-52.85 0.87,-105.56 5.02,-158 4.47,-52.36 10.55,-104.61 20.79,-155.95 5.02,-25.69 10.91,-51.19 17.92,-76.42 3.5,-12.59 7.26,-25.17 11.38,-37.64 4.16,-12.6 8.55,-24.72 13.88,-37.54 12.59,-30.21 47.28,-44.48 77.44,-31.94 25.33,10.56 39.44,36.6 35.91,62.57l-0.21 1.64z"/>
  <path class="fil1" d="M2463.3 8675.89c5.37,12.82 9.76,24.94 13.92,37.54 4.12,12.47 7.88,25.05 11.37,37.64 7.03,25.23 12.91,50.73 17.92,76.42 10.25,51.34 16.28,103.59 20.8,155.95 4.11,52.44 6.16,105.15 5.01,158 -0.34,13.21 -1.09,26.47 -1.75,39.64 -0.44,6.59 -0.68,13.15 -1.27,19.78l-2.04 19.8c-2.19,26.28 -6.7,52.65 -11.76,78.53 -0.9,4.67 -5.37,7.69 -10.04,6.79 -3.33,-0.68 -5.89,-3.22 -6.67,-6.35l-0.08 -0.44c-3.17,-12.75 -6.08,-25.38 -8.74,-37.97l-2.04 -9.41 -2.32 -9.41 -4.46 -18.76c-3.03,-12.47 -5.85,-24.9 -9.19,-37.29l-9.34 -37.12c-12.9,-49.33 -26.39,-98.28 -40,-147.12 -13.77,-48.83 -28.32,-97.35 -40.8,-146.3 -6.31,-24.48 -12.31,-49 -17.76,-73.63 -2.63,-12.35 -5.34,-24.67 -7.69,-37.1 -2.35,-12.28 -4.59,-24.99 -6.19,-36.92l-0.24 -1.6c-4.39,-32.39 18.35,-62.24 50.75,-66.6 27.19,-3.69 52.56,11.77 62.61,35.93z"/>
  <path class="fil14" d="M7622.14 10657.39l-4787.52 0c-155.01,0 -280.68,-125.68 -280.68,-280.69 0,-89.31 72.4,-161.72 161.71,-161.72l5025.46 0c89.3,0 161.68,72.41 161.68,161.72 0,155.01 -125.64,280.69 -280.65,280.69z"/>
  <path class="fil15" d="M2640 10387.45c-5.02,-4.87 -9.93,-9.93 -14.59,-15.13 2.31,-47.79 41.88,-85.99 90.24,-85.99l5025.46 0c48.28,0 87.86,38.13 90.21,85.86 -3.49,3.92 -7.1,7.76 -10.82,11.49 -1.26,1.26 -2.51,2.47 -3.81,3.73 -22.51,-11.96 -48.24,-18.71 -75.58,-18.71l-5025.37 0c-27.35,0 -53.11,6.75 -75.74,18.75z"/>
  <path class="fil16" d="M7622.14 10586.03l-4787.52 0c-109,0 -198.83,-83.77 -208.47,-190.3 4.47,-2.99 9.1,-5.74 13.85,-8.28 50.48,48.55 119.16,78.45 194.7,78.45l4787.44 0c75.51,0 144.22,-29.85 194.55,-78.49 4.78,2.51 9.41,5.3 13.88,8.27 -9.61,106.58 -99.43,190.35 -208.43,190.35z"/>
  <path class="fil17" d="M2626.15 10395.73c-0.55,-6.28 -0.86,-12.59 -0.86,-19.03 0,-1.44 0.03,-2.94 0.12,-4.38 4.66,5.2 9.57,10.26 14.59,15.13 -4.75,2.54 -9.38,5.29 -13.85,8.28zm5204.42 -0.05c-4.47,-2.97 -9.1,-5.76 -13.88,-8.27 1.3,-1.26 2.55,-2.47 3.81,-3.73 3.72,-3.73 7.33,-7.57 10.82,-11.49 0.08,1.49 0.12,3.02 0.12,4.51 0,6.4 -0.28,12.75 -0.87,18.98z"/>
  <path class="fil1" d="M2715.65 10286.33c-49.8,0 -90.36,40.55 -90.36,90.37 0,115.43 93.89,209.33 209.33,209.33l4787.52 0c115.4,0 209.3,-93.9 209.3,-209.33 0,-49.82 -40.52,-90.37 -90.33,-90.37l-5025.46 0zm4906.49 442.4l-4787.52 0c-194.11,0 -352.03,-157.92 -352.03,-352.03 0,-128.5 104.53,-233.06 233.06,-233.06l5025.46 0c128.49,0 233.06,104.56 233.06,233.06 0,194.11 -157.95,352.03 -352.03,352.03z"/>
  <path class="fil18" d="M8182.3 7054.93l-468.3 3159.98 -4971.16 0 -16.94 -114.34 -451.51 -3045.64c-14.82,-100.06 62.8,-189.8 163.76,-189.8l5580.34 0c101.14,0 178.57,89.74 163.81,189.8z"/>
  <path class="fil14" d="M8182.3 7054.93l-468.3 3159.98 -4971.16 0 -16.94 -114.34 -451.51 -3045.64c-14.82,-100.06 62.8,-189.8 163.76,-189.8l5580.34 0c101.14,0 178.57,89.74 163.81,189.8z"/>
  <path class="fil19" d="M2797.75 10098.76l-452.72 -3054.34c-4.07,-27.5 3.69,-54.24 21.85,-75.31 18.16,-21.06 43.47,-32.63 71.27,-32.63l5048.9 0c8.36,38.99 15.66,80.75 21.62,124.76l-4894.01 0c-100.96,0 -178.55,89.75 -163.76,189.81l421.85 2845.56c-27.42,0.78 -52.48,1.49 -75,2.15zm5311.5 -3037.52l-84.83 0 0.94 -6.31c6.47,-43.65 -4.63,-85.35 -27.57,-118.45l20.78 0c27.82,0 53.15,11.57 71.32,32.63 18.18,21.07 25.89,47.81 21.82,75.31l-2.46 16.82z"/>
  <path class="fil16" d="M7567.66 10143.64l-4687.97 0 -6.94 -47.03c644.92,-17.82 2589.66,-68.02 3705.06,-815.54 253.93,-170.16 446.28,-381.41 589.22,-610.32 15.92,19.77 33.38,38 52.33,54.44 0,0.04 0,0.04 0.03,0.04 0.08,0.08 0.19,0.15 0.28,0.24 15.1,13.1 31.14,25.06 48.2,35.85 106.3,67.07 199.57,85.66 283.04,85.66 51.89,0 100.02,-7.17 145.09,-14.39 23.26,-3.69 45.7,-7.41 67.46,-10.13l-195.8 1321.18zm440.63 -2973.39c-71.89,-18.87 -164.73,-35.74 -267.06,-35.74 -70.49,0 -145.53,8 -221.34,28.87 -2.99,-35.26 -6.75,-69.35 -11.22,-102.14l515.75 0 -16.13 109.01z"/>
  <path class="fil20" d="M2879.69 10143.64l-75.31 0 -6.63 -44.88c22.52,-0.66 47.58,-1.37 75,-2.15l6.94 47.03zm5144.73 -3082.4l-515.75 0c-5.96,-44.01 -13.26,-85.77 -21.62,-124.76l510.74 0c22.94,33.1 34.04,74.8 27.57,118.45l-0.94 6.31z"/>
  <path class="fil1" d="M2804.38 10143.64l4847.96 0 459.37 -3099.22c4.07,-27.5 -3.64,-54.24 -21.82,-75.31 -18.17,-21.06 -43.5,-32.63 -71.32,-32.63l-5580.42 0c-27.8,0 -53.11,11.57 -71.27,32.63 -18.16,21.07 -25.92,47.81 -21.85,75.31l459.35 3099.22zm4971.08 142.69l-5094.2 0 -477.39 -3221c-10.12,-68.17 9.92,-137.25 54.95,-189.45 45.03,-52.17 110.41,-82.14 179.33,-82.14l5580.42 0c68.96,0 134.32,29.97 179.34,82.14 45.03,52.2 65.03,121.28 54.97,189.45l-477.42 3221z"/>
  <path class="fil15" d="M3208.51 9552.41c-24.01,0 -49.51,-30.63 -69.98,-75.77 -188.58,-415.69 -325.91,-1125.29 -294.96,-1542.9 12.46,-168.5 59.34,-248.24 115.79,-248.24 83.39,0 187.64,174.23 232.43,493.34 151.17,1077.2 91.28,1373.57 16.72,1373.57z"/>
  <path class="fil3" d="M5747.99 8295.53c-60.75,-79.55 -120.01,-156.93 -179.4,-234.66 0.08,-1.78 0.54,-3.85 0.86,-5.78 69.16,8.28 138.46,16.75 208.48,25.14 -1.34,75.44 -12.48,144.5 -29.94,215.3zm-36.47 111.12c-35.89,84.7 -82.95,161.81 -150.07,225.66 -51.81,48.99 -110.61,88.29 -172.47,123.23 -167.8,94.74 -347.63,160.04 -531.52,215.27 -8.98,2.59 -14.47,2.12 -20.39,-6.12 -12.83,-18.24 -27.22,-35.81 -40.79,-53.81 -0.95,-1.02 -1.22,-2.67 -2.52,-5.93 4.68,-3.76 9.73,-7.49 14.79,-11.37 104.92,-80.57 210.36,-160.86 315.32,-241.59 30.36,-23.01 31.65,-62.59 3.57,-85.46 -19.61,-16.04 -45.42,-15.8 -68.06,1.22 -63.14,48.16 -126.13,96.33 -189.13,144.69 -46.99,35.93 -93.59,71.7 -142.38,109.12 -16.75,-21.85 -32.91,-41.85 -47.51,-62.83 -2.47,-3.81 0.05,-13.26 3.46,-17.97 55.9,-83.46 111.35,-167.36 169.61,-249.38 57.58,-81.43 123.03,-156.66 195.05,-225.7 67.51,-65.22 140.69,-122.81 229.15,-157.13 56.72,-22.08 115.24,-37.06 175.68,-43.54 5.48,-0.78 13.45,4.71 17.33,9.78 61.47,79.46 122.19,159.04 183.1,238.79 18.28,23.73 36.29,47.93 55.14,71.38 5.59,7.11 6.25,13.11 2.64,21.69zm-411.73 606.64c-20.04,63.97 -58.33,116.06 -105.47,162.54 -58.6,57.07 -126.81,99.63 -200.55,138.5 -4.44,-90.61 -8.99,-179.21 -13.46,-266.06 111.52,-43.37 220.51,-85.7 330.15,-128.29 4.23,30.2 -0.99,62.17 -10.67,93.31zm-663.51 -405.41c-78.88,-25.7 -160.66,-52.36 -244.68,-79.71 86.84,-92.25 178.67,-172.82 302.42,-206.83 53.42,-14.71 115.24,-13.45 151.68,1.38 -69.23,94.52 -138.66,189.05 -209.42,285.16zm1241.58 -426.41c6.05,-53.34 13.1,-107.27 2.68,-161.52 -4.68,-5.89 -8.95,-11.93 -13.62,-17.81 -15.49,-5.57 -30.51,-12.87 -46.55,-16.87 -113.12,-29.26 -227.82,-40.79 -344.3,-30.79 -151.93,13.1 -291.37,59.98 -411.27,156.54 -43.39,34.88 -83,74.22 -123.51,112.34 -10.87,10.36 -19.22,14.68 -34.48,7.74 -35.85,-16.37 -74.57,-23.62 -113.83,-25.62 -105.35,-4.75 -199.3,29.26 -286.96,84.29 -95,59.86 -171.56,139.83 -242.88,225.46 -30.35,36.28 -18.54,76.76 26.65,91.97 28.51,9.34 57.02,18.47 85.53,27.78 68.33,22.12 136.5,44.04 204.64,66.13 -0.12,2.11 0.07,3.25 -0.28,4.27 -0.54,1.33 -1.13,2.87 -2.07,4.15 -28.44,36.57 -21.54,70.38 8.43,102.15 3.26,3.53 5.99,7.69 8.86,11.53 15.69,20.63 31.69,41.5 48.36,62.99 -22.71,17.53 -45.02,32.44 -64.75,50.45 -9.97,9.06 -18.75,22.24 -22.52,35.29 -6.39,21.07 4.52,42.6 23.26,53.66 19.85,11.97 40.36,11.45 58.84,-1.88 23.49,-16.71 45.93,-34.82 69.81,-53.07 22.56,29.73 43.94,57.86 65.39,85.63 24.59,31.65 41.5,37.06 79.66,26.51 6.95,-2.15 13.77,-3.65 21.97,-5.65 0.58,8.16 1.18,14.72 1.52,20.83 4.83,98.57 9.34,197.22 14.75,295.47 2.47,46.6 39.26,68.64 81.36,48.64 37.97,-17.92 75.93,-36.91 113.19,-57.11 85.86,-46.67 164,-103.9 226.33,-179.92 78.05,-95.74 121.2,-202.63 100.99,-328.89 -0.85,-4.97 3.31,-13.5 7.62,-16.07 38.32,-24.68 77.62,-47.79 115.94,-72.61 86.61,-56.45 156.23,-129.8 210.64,-217.42 74.01,-119.09 114.88,-249.78 130.6,-388.59z"/>
  <path class="fil0" d="M5524.7 8506.4c-80.22,60.44 -193.73,45.65 -253.98,-33.46 -60.64,-78.99 -45.34,-192.42 34.13,-253.69 78.01,-60.1 191.57,-44.56 252.4,34.48 60.17,78.56 45.51,193.68 -32.55,252.67zm184.18 -121.44c-18.85,-23.45 -36.86,-47.65 -55.14,-71.38 -60.91,-79.75 -121.63,-159.33 -183.1,-238.79 -3.88,-5.07 -11.85,-10.56 -17.33,-9.78 -60.44,6.48 -118.96,21.46 -175.68,43.54 -88.46,34.32 -161.64,91.91 -229.15,157.13 -72.02,69.04 -137.47,144.27 -195.05,225.7 -58.26,82.02 -113.71,165.92 -169.61,249.38 -3.41,4.71 -5.93,14.16 -3.46,17.97 14.6,20.98 30.76,40.98 47.51,62.83 48.79,-37.42 95.39,-73.19 142.38,-109.12 63,-48.36 125.99,-96.53 189.13,-144.69 22.64,-17.02 48.45,-17.26 68.06,-1.22 28.08,22.87 26.79,62.45 -3.57,85.46 -104.96,80.73 -210.4,161.02 -315.32,241.59 -5.06,3.88 -10.11,7.61 -14.79,11.37 1.3,3.26 1.57,4.91 2.52,5.93 13.57,18 27.96,35.57 40.79,53.81 5.92,8.24 11.41,8.71 20.39,6.12 183.89,-55.23 363.72,-120.53 531.52,-215.27 61.86,-34.94 120.66,-74.24 172.47,-123.23 67.12,-63.85 114.18,-140.96 150.07,-225.66 3.61,-8.58 2.95,-14.58 -2.64,-21.69z"/>
  <path class="fil21" d="M5747.99 8295.49c-60.8,-79.42 -120.06,-156.93 -179.44,-234.62 0.2,-1.85 0.58,-3.78 0.86,-5.78 69.15,8.36 138.46,16.79 208.59,25.19 -1.33,75.3 -12.55,144.42 -30.01,215.21z"/>
  <path class="fil21" d="M4845.77 8322.76c-69.34,94.41 -138.77,189.01 -209.42,285.19 -79.02,-25.85 -160.76,-52.4 -244.75,-79.74 86.89,-92.33 178.7,-172.94 302.45,-206.83 53.39,-14.79 115.12,-13.49 151.72,1.38z"/>
  <path class="fil21" d="M5194.23 9175.83c-58.59,57.11 -126.72,99.74 -200.55,138.5 -4.47,-90.56 -8.94,-179.17 -13.37,-266.06 111.52,-43.34 220.48,-85.62 330.23,-128.37 4.19,30.28 -1.1,62.2 -10.72,93.47 -20.04,63.97 -58.31,116.01 -105.59,162.46z"/>
  <path class="fil3" d="M5470.61 8439.68c-40.64,30.75 -100.3,22.67 -131.99,-17.93 -32.75,-41.84 -23.81,-103.38 19.54,-135.55 40.59,-30.4 101.42,-21.61 131.98,19.18 31.97,42.44 23.14,102.02 -19.53,134.3zm86.64 -185.95c-60.83,-79.04 -174.39,-94.58 -252.4,-34.48 -79.47,61.27 -94.77,174.7 -34.13,253.69 60.25,79.11 173.76,93.9 253.98,33.46 78.06,-58.99 92.72,-174.11 32.55,-252.67z"/>
  <path class="fil4" d="M5470.61 8439.68c-40.68,30.75 -100.34,22.63 -132.07,-18 -32.6,-41.77 -23.76,-103.28 19.57,-135.44 40.69,-30.36 101.43,-21.62 131.99,19.1 31.93,42.48 23.26,102.14 -19.49,134.34z"/>
  <path class="fil0" d="M8157.59 7221.67c0,0 -385.26,-182.82 -747.06,-18.83 -346.46,157.06 -591.57,1275.17 -142.69,1558.39 172.38,108.81 310.57,90.06 428.08,71.36 71.35,-11.38 135.09,-22.75 194.28,-5.62 232.53,67.23 709.52,-1084.05 267.39,-1605.3z"/>
  <path class="fil16" d="M7763.46 8822.46l0 -0.03c16.09,-2 31.82,-3.46 47.23,-4 -15.38,0.54 -31.14,2 -47.23,4.03z"/>
  <path class="fil22" d="M7550.91 8846.98c-83.47,0 -176.74,-18.59 -283.04,-85.66 -17.06,-10.79 -33.1,-22.75 -48.2,-35.85 15.06,13.06 31.1,25.01 48.17,35.76 106.29,67.11 199.6,85.71 283.11,85.71 51.85,0 99.95,-7.17 144.97,-14.35 23.3,-3.73 45.78,-7.41 67.54,-10.16l0 0.03c-21.76,2.72 -44.2,6.44 -67.46,10.13 -45.07,7.22 -93.2,14.39 -145.09,14.39zm-331.52 -121.75c-0.03,0 -0.03,0 -0.03,-0.04 0,0.04 0,0.04 0.03,0.04z"/>
  <path class="fil2" d="M7550.95 8846.94c-83.51,0 -176.82,-18.6 -283.11,-85.71 -17.07,-10.75 -33.11,-22.7 -48.17,-35.76 -0.09,-0.09 -0.2,-0.16 -0.28,-0.24 -0.03,0 -0.03,0 -0.03,-0.04 -174.27,-151.44 -218.92,-450.71 -184.12,-745.76 25.49,187.13 97.75,347.48 232.63,432.59 133.32,84.06 245.27,108.86 343.4,108.86 105.76,0 195.54,-28.8 279,-43.23 198.88,-34.4 361.01,-251.7 441.11,-528.39 -43.63,447.91 -271.58,880.5 -420.95,880.5 -6.89,0 -13.61,-0.9 -20.16,-2.83 -21.8,-6.27 -44.2,-8.7 -67.39,-8.7 -4.04,0 -8.11,0.08 -12.19,0.2 -15.41,0.54 -31.14,2 -47.23,4 -21.76,2.75 -44.24,6.43 -67.54,10.16 -45.02,7.18 -93.12,14.35 -144.97,14.35z"/>
  <path class="fil1" d="M7740.29 7205.67c-108.46,0 -208.99,20.79 -300.3,62.17 -75.12,34.04 -154.82,137.25 -218.67,283.11 -65.75,150.15 -110.34,336.7 -122.39,511.75 -21.26,309.16 54.17,541.8 206.95,638.21 154.07,97.2 272.84,78.17 387.72,59.78 74.26,-11.89 144.39,-23.1 216.41,-2.28 8.27,1.45 67.65,-21.45 151.39,-166.54 195.33,-338.3 319.18,-977.22 52.02,-1311.64 -30.32,-12.59 -108.26,-42.2 -210.24,-59.93 -56.05,-9.77 -110.41,-14.63 -162.89,-14.63zm-188.4 1712.43c-93.47,0 -201.65,-20.44 -322.15,-96.49 -107.9,-68.1 -185.83,-178.28 -231.6,-327.48 -38.44,-125.21 -52.84,-277.78 -41.59,-441.23 13.34,-193.57 60.92,-392.16 133.99,-559.18 55.9,-127.59 151.6,-292.92 290.54,-355.87 387.49,-175.64 790.2,11.29 807.1,19.34l13.9 6.59 9.95 11.73c202.35,238.55 214.01,568.11 188.12,802.59 -29.09,264.17 -122.35,544.38 -243.31,731.33 -121.2,187.21 -222.68,204.55 -286.45,186.07 -41.42,-11.96 -93.71,-3.58 -154.23,6.13 -47.97,7.67 -102.96,16.47 -164.27,16.47z"/>
 </g>
</svg>
