<?xml version="1.0" encoding="UTF-8"?>
<!DOCTYPE svg PUBLIC "-//W3C//DTD SVG 1.1//EN" "http://www.w3.org/Graphics/SVG/1.1/DTD/svg11.dtd">
<!-- Creator: CorelDRAW -->
<svg xmlns="http://www.w3.org/2000/svg" xml:space="preserve" width="10mm" height="14mm" version="1.1" style="shape-rendering:geometricPrecision; text-rendering:geometricPrecision; image-rendering:optimizeQuality; fill-rule:evenodd; clip-rule:evenodd"
viewBox="0 0 1000 1400"
 xmlns:xlink="http://www.w3.org/1999/xlink"
 xmlns:xodm="http://www.corel.com/coreldraw/odm/2003">
 <defs>
  <style type="text/css">
   <![CDATA[
    .fil0 {fill:#373435;fill-rule:nonzero}
    .fil3 {fill:#22A7F0;fill-rule:nonzero}
    .fil2 {fill:#DB2C2C;fill-rule:nonzero}
    .fil1 {fill:white;fill-rule:nonzero}
   ]]>
  </style>
 </defs>
 <g id="Camada_x0020_1">
  <metadata id="CorelCorpID_0Corel-Layer"/>
  <g id="_2880286440608">
   <path class="fil0" d="M604.95 263.27c-80.43,0.02 -158.75,0.15 -237.36,0.19 -1.09,-0.92 -2.19,-2.22 -3.27,-3.37 39.01,-40.14 78.2,-80.28 117.7,-120.91 47.54,37.63 86.22,78.42 122.93,124.09zm53.2 77.47c36.6,64.22 62.92,131.88 70.98,205.88 6.03,56.98 2.47,113.7 -5.37,170.25 -21.3,153.37 -67.26,300.07 -121.63,444.46 -2.73,7 -5.7,10.28 -13.85,10.04 -17.91,-0.69 -36.15,-0.07 -54.26,-0.17 -1.12,0.1 -2.3,-0.53 -5.02,-1.29 -0.12,-4.82 -0.04,-9.86 -0.05,-14.99 -0.31,-106.3 -0.19,-212.79 -0.59,-319.2 0.1,-30.61 -24.55,-50.73 -52.85,-43.94 -19.8,4.7 -32.23,21.31 -32.4,44.07 -0.02,63.81 0.04,127.53 0.21,191.35 0.05,47.53 0.18,94.74 0.29,144.15 -22.12,0.04 -42.78,0.61 -63.3,-0.29 -3.63,-0.28 -8.44,-6.49 -9.79,-10.97 -26.06,-76.4 -52.61,-152.72 -76.6,-229.92 -23.94,-76.48 -40.09,-154.97 -49.08,-234.63 -8.74,-74.92 -9.85,-149.74 11.36,-222.98 13.54,-47 32.51,-91.68 57.83,-133.45 2.18,-3.88 9.57,-6.29 14.7,-6.3 80.73,-0.52 161.16,-0.51 241.8,-0.54 24.07,-0.1 48.31,0.19 72.48,-0.42 7.26,-0.1 11.42,2.4 15.14,8.89zm186.76 558.76c31.1,43.99 45.7,93.84 52.41,146.62 7.88,65.25 1.81,129.57 -9.31,195.62 -60.04,-41.34 -118.85,-81.63 -176.51,-121.11 26.67,-92.38 52.76,-182.64 79.01,-273.44 21.36,12.02 39.23,30.95 54.4,52.31zm-582.44 226.17c-54.88,37.86 -111.78,77.1 -170.21,117.43 -16.59,-100.44 -23.28,-198.38 15.33,-294.01 16.64,-41.29 47.59,-80.17 74.83,-96.21 26.62,90.3 53.15,180.74 80.05,272.79zm332.94 -1000.96c-31.12,-29.87 -62.13,-60.67 -101.87,-80.46 -6.04,0.11 -11.98,-0.1 -18.01,0.01 -11.11,7.18 -23.1,13.22 -33.47,21.51 -73.85,57.99 -137.13,125.64 -187.53,204.92 -65.71,103.43 -103.74,215.36 -100.52,339.02 1.13,44.72 6.94,89.2 11.54,133.67 1.32,11.99 0.01,19.43 -11.86,25.79 -27.94,14.92 -51.45,36.12 -71.87,60.22 -54.39,64.98 -78.47,141.57 -86.06,224.4 -8.08,89.86 5.68,177.76 25.6,265.06 8.38,37.08 40,49.27 71.74,27.82 19.87,-13.66 39.6,-27.42 59.45,-41.09 47.44,-32.87 94.68,-65.72 142.01,-98.48 1.29,1.11 2.11,1.54 2.59,2.26 0.59,1 1.28,2.12 1.64,3.35 9.5,35.99 34.46,48.07 69.36,44.42 3.85,-0.37 7.83,-0.08 11.69,-0.04 20.82,0.03 41.96,-0.01 63.81,-0.18 0.13,23.05 -1.23,44.57 0.66,65.95 0.92,10.79 5.06,22.82 11.56,31.59 10.34,14.36 29.41,17.88 45.62,11.31 17.32,-6.85 26.99,-20.2 27.48,-38.5 0.78,-23.16 0.15,-46.32 0.14,-70.47 29.99,0.08 58.38,0.14 86.58,-0.02 32.2,-0.28 43.9,-8.44 55.77,-37.96 2.01,-5.49 4.38,-10.58 7.1,-16.79 5.49,3.61 9.98,6.42 14.05,9.19 65.31,44.97 130.53,90.18 195.92,134.63 30.97,21.14 62.99,8.38 70.74,-28.26 7.06,-32.99 13.44,-66.5 18.7,-100.14 12.05,-77.6 13.59,-155.42 -4.58,-232.29 -23.1,-96.54 -70.34,-176.21 -160.85,-224.86 -3.58,-1.88 -7.01,-8.69 -6.55,-12.7 2.92,-36.51 7.32,-72.88 10.15,-109.46 6.17,-82.84 -6.74,-163.08 -36.19,-240.55 -39.98,-105.34 -103.54,-195.16 -184.54,-272.87z"/>
   <path class="fil1" d="M630.78 508.71c-0.5,80.71 -65.29,146 -145.19,145.92 -80.02,0.22 -145.02,-64.85 -145.41,-145.49 -0.36,-79.13 64.93,-144.09 145.08,-144.41 79.51,-0.13 145.9,65.36 145.52,143.98zm12.23 -176.86c-24.17,0.61 -48.41,0.32 -72.48,0.42 -80.64,0.03 -161.07,0.02 -241.8,0.54 -5.13,0.01 -12.52,2.42 -14.7,6.3 -25.32,41.77 -44.29,86.45 -57.83,133.45 -21.21,73.24 -20.1,148.06 -11.36,222.98 8.99,79.66 25.14,158.15 49.08,234.63 23.99,77.2 50.54,153.52 76.6,229.92 1.35,4.48 6.16,10.69 9.79,10.97 20.52,0.9 41.18,0.33 63.3,0.29 -0.11,-49.41 -0.24,-96.62 -0.29,-144.15 -0.17,-63.82 -0.23,-127.54 -0.21,-191.35 0.17,-22.76 12.6,-39.37 32.4,-44.07 28.3,-6.79 52.95,13.33 52.85,43.94 0.4,106.41 0.28,212.9 0.59,319.2 0.01,5.13 -0.07,10.17 0.05,14.99 2.72,0.76 3.9,1.39 5.02,1.29 18.11,0.1 36.35,-0.52 54.26,0.17 8.15,0.24 11.12,-3.04 13.85,-10.04 54.37,-144.39 100.33,-291.09 121.63,-444.46 7.84,-56.55 11.4,-113.27 5.37,-170.25 -8.06,-74 -34.38,-141.66 -70.98,-205.88 -3.72,-6.49 -7.88,-8.99 -15.14,-8.89z"/>
   <path class="fil2" d="M604.92 263.25c-80.37,0.12 -158.77,0.18 -237.35,0.23 -1.08,-1.03 -2.13,-2.21 -3.27,-3.36 39.05,-40.1 78.23,-80.26 117.79,-120.96 47.45,37.56 86.13,78.43 122.83,124.09z"/>
   <path class="fil2" d="M182.48 852.85c26.5,90.32 53.07,180.79 80.06,272.81 -55.03,37.87 -111.84,77.14 -170.26,117.46 -16.61,-100.51 -23.34,-198.46 15.35,-294.03 16.58,-41.31 47.5,-80.11 74.85,-96.24z"/>
   <path class="fil2" d="M897.27 1046.17c7.92,65.27 1.93,129.57 -9.3,195.63 -60.03,-41.3 -118.81,-81.64 -176.47,-121.17 26.69,-92.37 52.8,-182.58 79,-273.53 21.39,12.09 39.2,31.03 54.48,52.42 31.09,43.99 45.67,93.81 52.29,146.65z"/>
   <path class="fil0" d="M561.79 510.73c-0.17,40.95 -34.41,75.12 -75.8,75.57 -42.69,0.52 -77.64,-35.19 -77.06,-78.57 0.37,-40.75 35.65,-75.32 76.6,-74.95 42.7,0.27 76.45,34.96 76.26,77.95zm-76.53 -146c-80.15,0.32 -145.44,65.28 -145.08,144.41 0.39,80.64 65.39,145.71 145.41,145.49 79.9,0.08 144.69,-65.21 145.19,-145.92 0.38,-78.62 -66.01,-144.11 -145.52,-143.98z"/>
   <path class="fil3" d="M561.79 510.73c-0.19,40.98 -34.46,75.13 -75.88,75.59 -42.58,0.45 -77.56,-35.18 -76.98,-78.54 0.45,-40.79 35.65,-75.33 76.56,-75 42.7,0.32 76.58,34.94 76.3,77.95z"/>
  </g>
 </g>
</svg>
