<?xml version="1.0" encoding="UTF-8"?>
<!DOCTYPE svg PUBLIC "-//W3C//DTD SVG 1.1//EN" "http://www.w3.org/Graphics/SVG/1.1/DTD/svg11.dtd">
<!-- Creator: CorelDRAW -->
<svg xmlns="http://www.w3.org/2000/svg" xml:space="preserve" width="93.1332mm" height="55mm" version="1.1" style="shape-rendering:geometricPrecision; text-rendering:geometricPrecision; image-rendering:optimizeQuality; fill-rule:evenodd; clip-rule:evenodd"
viewBox="0 0 9313.32 5500"
 xmlns:xlink="http://www.w3.org/1999/xlink"
 xmlns:xodm="http://www.corel.com/coreldraw/odm/2003">
 <defs>
  <style type="text/css">
   <![CDATA[
    .fil5 {fill:#3099CD;fill-rule:nonzero}
    .fil4 {fill:#358EC7;fill-rule:nonzero}
    .fil3 {fill:#3285C0;fill-rule:nonzero}
    .fil2 {fill:#2C7CBA;fill-rule:nonzero}
    .fil0 {fill:#2472B5;fill-rule:nonzero}
    .fil1 {fill:#275776;fill-rule:nonzero}
    .fil6 {fill:#12B277;fill-rule:nonzero}
    .fil7 {fill:#14D18C;fill-rule:nonzero}
    .fil8 {fill:#53EFB5;fill-rule:nonzero}
   ]]>
  </style>
 </defs>
 <g id="Camada_x0020_1">
  <metadata id="CorelCorpID_0Corel-Layer"/>
  <path class="fil0" d="M9318.61 -0.33c-929.41,3112.7 -3813.86,5382.08 -7228.75,5382.08 -723.6,0 -1423.32,-102.1 -2085.77,-292.32l0 -5089.76 9314.52 0z"/>
  <path class="fil1" d="M9302.3 -0.33c-361.96,1209.55 -1019.81,2291.3 -1889.65,3161.26 -1362.38,1362.09 -3244.15,2204.6 -5322.79,2204.6 -723.66,0 -1423.44,-102.23 -2085.77,-292.85l0 33.68c662.55,189.79 1362.25,291.62 2085.77,291.62 3424.02,0 6315.85,-2276.54 7245.78,-5398.31l-33.34 0z"/>
  <path class="fil2" d="M4166.18 4263.96c-262.18,-76.3 -393.22,-358.77 -281.52,-570.87 153.45,-291.39 624.87,-360.79 605.9,-737.95 -18.29,-364.44 -188.85,-475.47 -234.7,-839.05 -39.76,-315.37 -128.02,-758.14 -89.68,-1080.3 51.05,-428.06 -27.77,-754.53 169.21,-1036.12l-4331.3 0 0 2821.04c142.74,20.66 269.85,40 449.25,107.01 256.59,95.96 538.92,472.97 670.48,700.65 140.88,244.22 495.86,176.71 616.26,425.42 180.3,372.8 -444.56,910.11 4.06,1081.58 319.63,122.1 885.73,-16.18 1232.2,-16.18 365.56,0 661.97,-209.04 1037.57,-172.26 241.95,23.49 1075.43,-141.07 749.47,-348.6l-597.2 -334.37z"/>
  <path class="fil3" d="M2289.74 4903.11c340.37,19.71 1079.63,257.17 1248.31,-199.79 133.88,-363.39 -337.35,-622.54 -319.1,-967.88 13.71,-261.96 829.56,-480.26 794.44,-780.3 -53.71,-461.16 -172.41,-786.44 -222.1,-1246.99 -46.89,-435.11 -241.99,-830.94 -55.83,-1212.43 77.72,-159.59 104.15,-328.72 129.93,-496.05l-3861.3 0 0 2502.95c95.49,16 190.54,27.67 275.28,40.11 324.34,47.7 557.27,74.13 844.45,227.95 240.62,128.88 492.08,529.32 619.81,760.53 161.72,292.92 340.88,529.39 340.88,868.38 0,237.51 0.95,491.7 205.23,503.52z"/>
  <path class="fil4" d="M2505.73 4751.83c221.43,-49.74 609.36,50.72 737.9,-194.96 102.11,-195.1 -250.33,-652.47 -290.65,-880.48 -41.87,-237.55 -14.03,-293.04 56.65,-491.5 66.78,-187.39 486.82,-393.74 403.14,-581.98 -88.54,-199.12 -129.63,-1174.9 -264.26,-1337.95 -156.2,-189.1 -673.84,-128.82 -794.53,-341.22 -53.37,-94.07 -131,-46.65 -221.57,0.66 -77.02,40.24 -163.38,80.33 -253.06,34.33 -256.64,-132.28 -570.36,-178.7 -823.6,-326.66 -332.2,-194.35 -640.89,-473.12 -1012.8,-597.09 -13.53,-4.5 -26.43,-8.44 -38.86,-11.92l0 2144.07c186,67.01 366.14,153.83 553.48,235.72 474.78,207.77 864.55,313.23 1213.76,728.57 212.4,252.7 654.36,659.76 626.66,993.9 -21.79,259.25 -138.08,681.87 107.74,626.51z"/>
  <path class="fil5" d="M1051.26 2229.16c618.33,606.27 1717.27,810.28 967.22,183.66 -749.81,-626.52 -686.6,-686.04 -1161.14,-753.5 -474.54,-67.42 -452.94,-580.98 -712.23,-324.16 -47.04,46.57 -95.6,77.72 -141.02,99.23l0 218.95 9.32 5.98c434.3,278.26 830.5,366.37 1037.85,569.84z"/>
  <path class="fil6" d="M4684.59 -0.33c-157.67,212.3 -338.31,369.12 -385.57,680.74 -94.5,624.51 117.18,1267.7 259.2,1857.92 51.06,211.93 147.3,416.36 47.75,636.35 -101.93,225.84 -488.64,310.45 -531.22,515.33 -103.48,498.5 580.8,804.83 1092.35,1037.19 1988.09,-889.26 3520.67,-2613.93 4151.79,-4727.53l-4634.3 0z"/>
  <path class="fil6" d="M4664.39 -0.33c-42.88,57.09 -87.45,110.58 -130.7,164.8 -112.9,140.93 -216.53,287.86 -250.7,513.59 -16.36,108.63 -23.64,217.74 -23.64,327.03 0.1,523.65 165.93,1049.45 283.13,1537.06 35.64,146.62 90.72,286.96 90.52,428.12 0,65.21 -11.43,130.63 -41.79,197.79 -47.79,106.45 -167.06,183.61 -281.94,258.6 -57.44,37.58 -113.5,74.68 -158.84,116.29 -45.01,41.41 -79.85,87.69 -91.33,143.75 -7.43,35.31 -10.93,69.64 -10.93,103.16 0.34,228.66 161.87,412.65 379.43,565.86 218.17,153.61 494.49,278.03 732.69,386.33l13.34 0c1993.82,-891.85 3530.59,-2622.12 4162.26,-4742.38l-33.87 0c-630.64,2106.91 -2159.2,3826 -4141.54,4712.83l6.62 14.7 6.53 -14.56c-238.02,-108.25 -513.07,-232.31 -727.41,-383.43 -214.57,-151.13 -365.99,-327.71 -365.56,-539.35 0,-31.31 3.16,-63.4 9.97,-96.64 9.69,-46.31 39.19,-87.41 81.78,-126.5 63.59,-58.62 155.11,-111.23 241.1,-170.52 85.71,-59.17 166.64,-125.41 207.25,-214.75 32.47,-71.76 44.87,-142.15 44.87,-211.18 -0.24,-149.52 -57.06,-292.16 -91.53,-435.77 -117.85,-489.05 -282.51,-1012.46 -282.32,-1529.41 0,-107.82 7.09,-215.27 23.21,-322.21 33.19,-217.89 131.81,-357.77 243.93,-498.17 47.65,-59.8 97.78,-119.55 145.81,-185.04l-40.34 0z"/>
  <path class="fil7" d="M5228.08 3779.55c214.91,87.37 794.83,-266.15 996.35,-384.53 404.75,-237.88 733.12,-621.92 1037.75,-977.1 464.99,-542.08 935.46,-1342.29 1098.46,-2062.02 26.01,-114.85 54.96,-234.12 84.58,-356.23l-3525.23 0c-29.61,62.33 -59.99,127.55 -94.48,196.1 -78.68,156.71 -164.8,337.83 -201.83,511.16 -56.53,264.74 65.59,535.26 112.81,799.35 50.25,281.68 113.69,545.17 168.15,825.36 37.59,193.04 131.32,428.55 70.02,626.81 -62.32,201.24 -595.94,624.77 -157.19,734.64l410.61 86.46z"/>
  <path class="fil8" d="M5616.87 3239.59c786.77,-476.42 1164.54,-1104.03 1467.51,-1940.37 105.2,-290.39 270.18,-615.5 305.73,-910.53 15.51,-128.29 -21.53,-259.42 -54.11,-389.02l-1903.55 0c-4.54,9.27 -9.07,18.66 -13.61,28.22 -249.8,525.6 -473.45,981.75 -293.43,1571 109.01,357.17 263.08,705.48 205.97,1095.68 -23.16,157.41 -315.51,563.61 47.98,480.11l237.51 64.91z"/>
  <path class="fil6" d="M1360.94 5346.59c-41.46,-206.92 -50.72,-402.54 42.88,-694.27 164.47,-512.12 29.65,-428.67 -345.38,-786.34 -234.52,-223.66 -392.27,-701.89 -680.93,-874.81 -111.57,-66.92 -239.17,-95.98 -373.42,-112.34l0 2210.09c437.35,125.58 890.85,212.97 1356.85,257.67z"/>
  <path class="fil6" d="M1360.94 5346.59l15.94 -3.27c-17.96,-89.59 -29.78,-176.38 -29.78,-269.8 0,-120.92 19.66,-253 72.13,-416.28 46.61,-145.33 69.83,-243.55 69.83,-319.91 0.66,-97.19 -40.37,-158.03 -111.76,-221.04 -71.38,-63.73 -173.92,-134.49 -307.7,-262.13 -114.54,-108.93 -212.6,-283.62 -317.49,-453.08 -105.28,-169.42 -217.32,-334.27 -366.14,-423.76 -115.26,-69.01 -245.8,-98.39 -381.88,-114.8l0 32.63c132.41,16.36 257.1,45.1 365.19,109.91 139.89,83.54 250.64,244.21 355.36,413.03 104.57,168.73 202.72,344.95 322.6,459.55 135.25,129.06 239.81,201.29 308.56,262.85 68.73,62.26 100.31,108.96 100.83,196.84 0.14,69.63 -21.84,165.88 -68.31,310.03 -53.28,165.93 -73.56,301.7 -73.56,426.16 0,96.17 12.2,185.28 30.3,276.13l15.88 -3.06 1.61 -16.27 -1.61 16.27zm-1356.85 -240.93c436.92,125.16 889.9,212.36 1355.34,256.99l13.52 -5.24 3.93 -14.09 -15.94 3.27 1.61 -16.27c-466.6,-44.73 -920.65,-132.33 -1358.46,-258.32l0 33.66z"/>
  <path class="fil7" d="M962.48 5297.18c98.52,-46.47 165.55,-126.31 161.01,-264.5 -3.07,-95.72 -100.36,-171.55 -108.83,-281.46 -9.07,-116.49 59.99,-211.07 65.19,-323.41 15.37,-330.58 -378.52,-576.26 -611.81,-762.57 -169.11,-134.97 -298.84,-277.63 -463.95,-379.78l0 1802.94c311.71,89.51 631.55,159.79 958.39,208.78z"/>
  <path class="fil8" d="M4.09 5014.2c20.28,6.29 40.24,12.13 59.76,17.49 141.21,38.91 500.25,134.69 649.02,93.6 241.52,-66.65 38.19,-249.27 2.69,-384.81 -36.3,-137.85 56.12,-273.61 42.27,-404.89 -14.51,-138.9 -106.84,-195.9 -209,-293.99 -153.75,-147.9 -334.83,-330.37 -544.74,-432.96l0 1405.56z"/>
 </g>
</svg>
